<svg width="162" height="109" viewBox="0 0 162 109" fill="none" xmlns="http://www.w3.org/2000/svg">
<path d="M15.1016 93.98C15.1016 98.18 11.9216 101.14 7.96156 101.14C4.02156 101.14 0.801563 98.18 0.801563 93.98C0.801563 89.8 4.02156 86.84 7.96156 86.84C11.9416 86.84 15.1016 89.8 15.1016 93.98ZM3.68156 93.98C3.68156 96.82 5.42156 98.64 7.96156 98.64C10.4816 98.64 12.2216 96.82 12.2216 93.98C12.2216 91.14 10.4816 89.36 7.96156 89.36C5.42156 89.36 3.68156 91.14 3.68156 93.98ZM19.9847 91.52C20.6447 90.58 21.9247 89.74 23.6447 89.74C26.4847 89.74 28.7047 91.96 28.7047 95.42C28.7047 98.88 26.4847 101.18 23.6447 101.18C21.9047 101.18 20.6647 100.32 19.9847 99.42V106.28H17.1847V89.92H19.9847V91.52ZM25.8447 95.42C25.8447 93.32 24.4247 92.2 22.9047 92.2C21.4047 92.2 19.9847 93.36 19.9847 95.46C19.9847 97.56 21.4047 98.72 22.9047 98.72C24.4247 98.72 25.8447 97.52 25.8447 95.42ZM35.4994 92.04C34.1594 92.04 33.0994 92.9 32.8794 94.42H38.1394C38.0994 92.96 36.9394 92.04 35.4994 92.04ZM40.7594 97.52C40.1594 99.56 38.3194 101.18 35.5794 101.18C32.3594 101.18 30.0194 98.94 30.0194 95.46C30.0194 91.96 32.2994 89.74 35.5794 89.74C38.7794 89.74 41.0394 91.92 41.0394 95.22C41.0394 95.58 41.0194 95.94 40.9594 96.3H32.8594C32.9994 97.94 34.1194 98.86 35.5194 98.86C36.7194 98.86 37.3794 98.26 37.7394 97.52H40.7594ZM50.8431 101V94.88C50.8431 93.1 49.8631 92.14 48.3831 92.14C46.8631 92.14 45.8831 93.1 45.8831 94.88V101H43.0831V89.92H45.8831V91.3C46.6031 90.36 47.8031 89.76 49.2231 89.76C51.8031 89.76 53.6431 91.44 53.6431 94.5V101H50.8431ZM65.9514 87.04C70.4114 87.04 73.3114 89.8 73.3114 94.04C73.3114 98.26 70.4114 101 65.9514 101H61.0714V87.04H65.9514ZM63.8714 98.62H65.8514C68.7914 98.62 70.4514 96.94 70.4514 94.04C70.4514 91.14 68.7914 89.4 65.8514 89.4H63.8714V98.62ZM74.6873 95.42C74.6873 91.96 76.9273 89.74 79.7473 89.74C81.5273 89.74 82.7473 90.58 83.4073 91.5V89.92H86.2273V101H83.4073V99.38C82.7473 100.34 81.4873 101.18 79.7273 101.18C76.9273 101.18 74.6873 98.88 74.6873 95.42ZM83.4073 95.46C83.4073 93.36 82.0073 92.2 80.4673 92.2C78.9673 92.2 77.5473 93.32 77.5473 95.42C77.5473 97.52 78.9673 98.72 80.4673 98.72C82.0073 98.72 83.4073 97.56 83.4073 95.46ZM89.402 97.56V92.22H88.082V89.92H89.402V87.18H92.222V89.92H94.702V92.22H92.222V97.58C92.222 98.32 92.522 98.64 93.402 98.64H94.702V101H92.942C90.822 101 89.402 100.1 89.402 97.56ZM95.9959 95.42C95.9959 91.96 98.2359 89.74 101.056 89.74C102.836 89.74 104.056 90.58 104.716 91.5V89.92H107.536V101H104.716V99.38C104.056 100.34 102.796 101.18 101.036 101.18C98.2359 101.18 95.9959 98.88 95.9959 95.42ZM104.716 95.46C104.716 93.36 103.316 92.2 101.776 92.2C100.276 92.2 98.8559 93.32 98.8559 95.42C98.8559 97.52 100.276 98.72 101.776 98.72C103.316 98.72 104.716 97.56 104.716 95.46ZM114.296 89.3V87.04H124.536V89.3H120.816V101H118.016V89.3H114.296ZM125.859 95.42C125.859 91.96 128.099 89.74 130.919 89.74C132.699 89.74 133.919 90.58 134.579 91.5V89.92H137.399V101H134.579V99.38C133.919 100.34 132.659 101.18 130.899 101.18C128.099 101.18 125.859 98.88 125.859 95.42ZM134.579 95.46C134.579 93.36 133.179 92.2 131.639 92.2C130.139 92.2 128.719 93.32 128.719 95.42C128.719 97.52 130.139 98.72 131.639 98.72C133.179 98.72 134.579 97.56 134.579 95.46ZM146.254 101L143.974 97.56L141.954 101H138.954L142.574 95.44L138.914 89.92H142.074L144.334 93.34L146.374 89.92H149.374L145.734 95.44L149.414 101H146.254ZM155.695 92.04C154.355 92.04 153.295 92.9 153.075 94.42H158.335C158.295 92.96 157.135 92.04 155.695 92.04ZM160.955 97.52C160.355 99.56 158.515 101.18 155.775 101.18C152.555 101.18 150.215 98.94 150.215 95.46C150.215 91.96 152.495 89.74 155.775 89.74C158.975 89.74 161.235 91.92 161.235 95.22C161.235 95.58 161.215 95.94 161.155 96.3H153.055C153.195 97.94 154.315 98.86 155.715 98.86C156.915 98.86 157.575 98.26 157.935 97.52H160.955Z" fill="#282828"/>
<path d="M13 0.418945V60.1987H149.942V0.418945H13ZM73.8148 6.75974H88.9299L73.8148 14.8235V6.75974ZM69.4819 19.7121L56.6603 26.3753V26.3817H56.6486L56.6603 26.3753V20.7211C56.6603 19.8056 55.8913 19.0642 54.9418 19.0642H35.1076C34.1581 19.0642 33.3892 19.8056 33.3892 20.7211V39.8095C33.3892 40.7234 34.1581 41.4632 35.1043 41.4632H53.4758C55.5804 41.4632 56.6285 40.6493 56.6285 38.3718L56.6168 37.5369H56.6202L69.4819 30.9689V50.6488C69.4819 52.3928 68.0158 53.808 66.2054 53.808H23.8574C22.0403 53.808 20.5676 52.388 20.5676 50.636V9.885C20.5676 8.13943 22.0353 6.72267 23.8474 6.72267H66.1987C68.0125 6.72267 69.4819 8.13943 69.4819 9.88823V19.7121ZM89.092 53.8724H73.8148V16.6755L89.092 8.25226V53.8724ZM142.359 24.8199L134.083 35.8735H106.064V42.6995H142.53L134.252 53.9047H93.2344V6.78714H142.528L133.911 17.8344H106.064V24.8199H142.359Z" fill="#150600"/>
<path d="M93.1391 6.73877H142.433L133.816 17.786H105.969V24.7715H142.264L133.988 35.8252H105.969V42.6511H142.433L134.155 53.8563H93.1391V6.73877Z" fill="black"/>
<path d="M88.9969 8.20215L73.7196 16.6254V53.8223H88.9969V8.20215Z" fill="black"/>
<path d="M73.7196 6.70972V14.7735L88.8364 6.70972H73.7196Z" fill="black"/>
<path d="M56.565 26.33V20.6694C56.565 19.7539 55.796 19.0125 54.8465 19.0125H35.0124C34.0628 19.0125 33.2939 19.7539 33.2939 20.6694V39.7579C33.2939 40.6718 34.0628 41.4116 35.009 41.4116H53.3805C55.4851 41.4116 56.5332 40.5976 56.5332 38.3202L56.5215 37.4852H56.5249L69.3866 30.9172V50.5972C69.3866 52.3411 67.9205 53.7563 66.1101 53.7563H23.7621C21.945 53.7563 20.4723 52.3363 20.4723 50.5843V9.83494C20.4723 8.08937 21.94 6.67261 23.7521 6.67261H66.1035C67.9172 6.67261 69.3866 8.08937 69.3866 9.83817V19.6604L56.555 26.33H56.565Z" fill="black"/>
<path d="M81.4024 0.418945H13V60.1987H81.4024V0.418945Z" fill="#EF7D00"/>
<path d="M149.942 0.418945H81.4025V60.1987H149.942V0.418945Z" fill="#009640"/>
<path d="M93.1576 6.81958H142.451L133.834 17.8668H105.986V24.8523H142.282L134.004 35.9076H105.986V42.7335H142.451L134.172 53.9387H93.1576V6.81958Z" fill="white"/>
<path d="M89.0135 8.28467L73.738 16.7079V53.9048H89.0135V8.28467Z" fill="white"/>
<path d="M73.738 6.79199V14.8558L88.8531 6.79199H73.738Z" fill="white"/>
<path d="M56.5834 26.4123V20.7517C56.5834 19.8362 55.8145 19.0948 54.865 19.0948H35.0291C34.0796 19.0948 33.3107 19.8362 33.3107 20.7517V39.8401C33.3107 40.754 34.0796 41.4938 35.0258 41.4938H53.3973C55.5019 41.4938 56.55 40.6799 56.55 38.4024L56.5383 37.5675H56.5417L69.4034 30.9995V50.6794C69.4034 52.4234 67.9373 53.8386 66.1269 53.8386H23.7806C21.9635 53.8386 20.4908 52.4186 20.4908 50.6665V9.91722C20.4908 8.17165 21.9585 6.75488 23.7705 6.75488H66.1219C67.9356 6.75488 69.405 8.17165 69.405 9.92044V19.7427L56.5734 26.4107H56.5834V26.4123Z" fill="white"/>
</svg>
