<svg width="1728" height="1077" viewBox="0 0 1728 1077" fill="none" xmlns="http://www.w3.org/2000/svg">
<mask id="mask0_49_982" style="mask-type:luminance" maskUnits="userSpaceOnUse" x="0" y="0" width="1729" height="1077">
<path d="M1728 0H0V1077H1728V0Z" fill="white"/>
</mask>
<g mask="url(#mask0_49_982)">
<path d="M-25.92 834.944C3.74402 758.073 92.448 705.166 179.424 712.301C241.344 717.417 300.672 749.457 362.304 741.514C437.328 731.956 486.864 669.894 537.264 623.718C600.48 565.829 662.256 541.596 750.816 566.367C816.48 584.676 870.624 626.814 941.328 626.949C1071.36 627.218 1135.01 499.997 1176.62 404.01C1218.53 307.349 1260 205.034 1366.13 155.492C1453.1 114.835 1539.94 119.143 1630.37 144.991C1673.86 157.377 1716.48 165.723 1752.48 194.668" stroke="#FF8703" stroke-miterlimit="10"/>
<path d="M1756.51 199.245C1719.65 170.704 1676.3 161.954 1632.24 149.568C1599.84 140.414 1567.87 134.086 1536.19 131.394C1478.16 126.413 1420.99 134.221 1364.11 160.877C1346.54 169.223 1330.56 178.916 1316.16 189.821C1242.86 245.556 1208.88 331.85 1172.74 413.433C1129.68 510.767 1061.71 636.507 930.384 635.026C859.536 634.353 805.104 592.754 739.728 573.637C681.408 556.809 634.608 560.578 591.12 580.772C569.088 591.004 548.064 605.543 526.608 623.583C475.632 666.663 425.088 724.955 350.208 733.706C331.632 735.86 313.344 734.648 295.056 731.821C252.432 725.09 210.384 709.474 167.184 706.916C80.352 701.531 -7.34405 755.246 -36.576 832.386" stroke="#FF8703" stroke-miterlimit="10"/>
<path d="M1760.26 203.687C1722.53 175.551 1678.61 166.396 1633.82 154.011C1600.99 144.856 1568.45 138.394 1536.34 135.836C1477.44 130.99 1419.12 138.933 1361.95 165.992C1344.1 174.474 1328.11 184.301 1313.57 195.61C1239.55 252.556 1206.14 340.332 1168.99 422.857C1124.5 521.672 1052.06 645.661 919.44 642.969C848.736 641.757 793.872 600.562 728.64 580.907C670.896 563.675 624.096 565.963 580.608 584.272C558.576 593.427 537.408 606.889 515.808 623.583C464.4 663.566 412.848 718.09 337.968 726.167C319.392 728.187 300.96 726.975 282.672 724.148C239.904 717.82 197.712 703.281 154.656 701.531C67.968 698.165 -18.72 752.554 -47.52 829.963" stroke="#FF8703" stroke-miterlimit="10"/>
<path d="M1764 208.13C1725.41 180.397 1680.91 170.974 1635.41 158.453C1602.14 149.299 1569.17 142.837 1536.48 140.279C1476.72 135.433 1417.39 143.645 1359.65 171.243C1341.65 179.859 1325.38 189.956 1310.69 201.399C1235.95 259.557 1203.12 348.948 1164.96 432.146C1118.88 532.442 1042.27 654.412 908.352 650.912C837.648 649.162 782.496 608.37 717.408 588.042C660.24 570.271 613.584 571.483 570.096 587.773C548.064 595.985 526.752 608.236 505.152 623.583C453.168 660.47 400.752 711.089 325.728 718.494C307.152 720.244 288.72 719.032 270.288 716.474C227.376 710.416 185.04 697.088 142.128 696.28C55.872 694.665 -29.808 749.861 -58.32 827.54" stroke="#FEB700" stroke-miterlimit="10"/>
<path d="M1767.74 212.438C1728.29 185.109 1683.07 175.282 1637.14 162.762C1603.44 153.607 1570.03 147.145 1536.77 144.587C1476.14 139.875 1415.81 148.357 1357.63 176.224C1339.49 184.975 1322.93 195.206 1308.1 206.919C1232.5 266.154 1200.38 357.16 1161.22 441.301C1113.7 542.943 1032.77 663.163 897.552 658.72C826.848 656.297 771.264 616.044 706.464 595.177C649.728 576.868 603.216 576.868 559.728 591.138C537.696 598.408 516.384 609.447 494.496 623.448C441.936 657.105 388.656 704.089 313.632 710.685C295.056 712.301 276.48 711.089 258.048 708.666C214.992 703.012 172.512 690.761 129.744 690.896C43.776 691.03 -41.04 747.034 -68.976 824.982" stroke="#FF8703" stroke-miterlimit="10"/>
<path d="M1771.63 216.881C1731.31 189.956 1685.52 179.724 1638.86 167.339C1604.74 158.184 1570.75 151.722 1537.06 149.164C1475.57 144.453 1414.08 153.203 1355.47 181.474C1337.04 190.36 1320.48 200.86 1305.36 212.842C1229.04 273.289 1197.5 365.776 1157.33 450.724C1108.22 553.847 1023.12 672.317 886.464 666.663C815.76 663.836 759.888 623.987 695.232 602.447C639.072 583.734 592.704 582.388 549.072 594.639C526.896 600.831 505.584 610.794 483.552 623.448C430.56 654.008 376.272 697.223 301.248 703.012C282.672 704.493 264.096 703.281 245.664 700.992C202.464 695.607 159.984 684.433 117.072 685.51C31.248 687.53 -52.416 744.342 -80.064 822.559" stroke="#FEB700" stroke-miterlimit="10"/>
<path d="M1775.38 221.323C1734.19 194.802 1687.82 184.302 1640.45 171.781C1605.89 162.627 1571.47 156.165 1537.2 153.607C1474.85 149.03 1412.35 157.915 1353.17 186.59C1334.59 195.61 1317.74 206.245 1302.48 218.496C1225.3 280.155 1194.48 374.257 1153.15 459.879C1102.61 564.483 1013.04 681.202 875.232 674.471C804.528 671.106 748.368 631.66 683.856 609.447C628.272 590.331 581.904 587.638 538.416 597.87C516.24 603.12 494.784 611.871 472.608 623.179C418.896 650.643 363.888 690.088 288.864 695.203C270.144 696.415 251.712 695.203 233.136 693.049C189.792 688.068 147.168 677.971 104.4 679.991C18.8639 683.895 -63.7921 741.38 -91.0081 819.866" stroke="#FF8703" stroke-miterlimit="10"/>
<path d="M1779.12 225.766C1737.07 199.649 1689.98 188.744 1642.18 176.224C1607.18 167.07 1572.34 160.608 1537.49 158.05C1474.27 153.472 1410.77 162.627 1351.15 191.841C1332.43 200.995 1315.3 211.9 1299.89 224.285C1221.98 287.155 1191.74 382.739 1149.41 469.303C1097.28 575.253 1003.54 690.222 864.288 682.549C793.728 678.645 737.136 639.738 672.768 616.852C617.616 597.331 571.536 593.292 527.904 601.504C505.728 605.678 484.128 613.351 461.808 623.314C407.52 647.681 351.648 683.222 276.624 687.664C257.904 688.741 239.328 687.53 220.752 685.51C177.264 680.799 134.496 671.913 91.872 674.875C6.62395 680.529 -75.168 738.822 -101.952 817.578" stroke="#FFB700" stroke-miterlimit="10"/>
<path d="M1782.86 230.074C1739.95 204.495 1692.29 193.052 1643.76 180.532C1608.34 171.378 1572.91 164.916 1537.63 162.358C1473.41 157.915 1408.9 167.339 1348.85 196.822C1329.84 206.111 1312.7 217.15 1297.01 229.94C1218.24 293.886 1188.72 391.086 1145.38 478.457C1091.81 585.888 993.744 699.108 853.2 690.222C782.64 685.78 725.76 647.277 661.536 623.852C606.96 603.793 560.88 598.543 517.392 604.736C495.072 607.967 473.472 614.428 451.152 623.044C396.288 644.181 339.552 676.087 264.528 679.722C245.808 680.664 227.232 679.452 208.512 677.568C164.88 673.26 121.968 665.451 79.488 669.221C-5.47195 676.76 -86.256 735.726 -112.608 814.885" stroke="#FF8703" stroke-miterlimit="10"/>
<path d="M1786.61 234.517C1742.83 209.342 1694.59 197.63 1645.34 184.975C1609.49 175.82 1573.63 169.358 1537.78 166.935C1472.69 162.493 1407.17 172.186 1346.54 202.072C1327.39 211.496 1309.97 222.805 1294.27 235.729C1214.78 300.887 1185.84 399.567 1141.49 487.881C1086.34 596.793 984.096 708.262 842.256 698.3C771.696 693.319 714.384 655.355 650.448 631.122C596.448 610.659 550.368 603.928 506.88 608.236C484.56 610.39 462.816 615.775 440.352 623.045C384.768 641.084 327.312 669.221 252.288 672.183C233.568 672.856 214.848 671.779 196.128 670.029C152.352 665.99 109.296 659.393 66.96 664.105C-17.856 673.529 -97.488 733.303 -123.408 812.597" stroke="#FF8703" stroke-miterlimit="10"/>
<path d="M1790.5 238.959C1745.86 214.188 1696.9 202.072 1647.07 189.552C1610.78 180.398 1574.5 173.801 1538.21 171.512C1472.26 167.204 1405.73 177.032 1344.67 207.457C1325.38 217.016 1307.66 228.459 1291.82 241.652C1211.47 308.022 1183.25 408.318 1137.89 497.305C1081.3 607.563 974.736 717.417 831.456 706.377C760.896 700.858 703.296 663.297 639.504 638.526C585.936 617.66 540.144 609.582 496.656 611.871C474.336 613.082 452.448 617.256 429.84 623.179C373.68 637.988 315.36 662.49 240.336 664.644C221.616 665.182 202.896 663.971 184.176 662.355C140.256 658.72 97.2 653.066 54.864 658.855C-29.664 670.029 -108.432 730.61 -133.92 810.173" stroke="#FFAB24" stroke-miterlimit="10"/>
<path d="M1794.24 243.402C1748.74 219.035 1699.2 206.515 1648.8 193.995C1611.94 184.84 1575.22 178.243 1538.5 175.955C1471.68 171.647 1404 181.878 1342.51 212.573C1322.93 222.4 1305.22 233.978 1289.09 247.441C1208.02 315.022 1180.37 416.799 1134 506.728C1075.68 618.198 964.8 726.436 820.224 714.186C749.664 708.262 691.776 671.106 628.128 645.527C575.136 624.256 529.344 614.832 485.856 615.102C463.392 615.236 441.504 618.333 418.752 622.91C361.872 634.488 302.832 655.22 227.808 656.701C209.088 656.97 190.224 655.893 171.504 654.412C127.44 651.046 84.2399 646.604 42.0479 653.2C-42.1921 666.259 -119.952 727.513 -145.008 807.481" stroke="#FFAB24" stroke-miterlimit="10"/>
<path d="M1797.98 247.71C1751.62 223.747 1701.5 210.957 1650.38 198.303C1613.09 189.148 1575.94 182.551 1538.64 180.263C1470.96 176.089 1402.27 186.456 1340.21 217.554C1320.48 227.516 1302.48 239.229 1286.21 252.96C1204.42 321.619 1177.34 425.011 1129.82 515.748C1070.21 628.833 955.008 735.456 809.136 721.994C738.72 715.532 680.4 678.914 616.896 652.662C564.48 630.987 518.832 620.217 475.2 618.467C452.736 617.525 430.56 619.41 407.808 622.775C350.208 631.122 290.448 648.219 215.424 648.892C196.704 649.027 177.84 647.95 158.976 646.604C114.768 643.642 71.424 640.276 29.376 647.815C-54.576 662.759 -131.328 724.821 -156.096 804.923" stroke="#FF8703" stroke-miterlimit="10"/>
<path d="M1801.73 252.152C1754.5 228.593 1703.66 215.4 1651.97 202.745C1614.24 193.591 1576.66 186.994 1538.78 184.705C1470.24 180.532 1400.54 191.167 1338.05 222.804C1318.18 232.901 1299.89 244.883 1283.47 258.749C1200.82 328.619 1174.46 433.627 1125.94 525.172C1064.88 639.738 945.36 744.611 798.192 730.071C727.776 723.071 669.024 686.991 605.808 660.066C553.824 637.988 508.32 625.872 464.832 622.102C442.368 620.217 420.048 620.89 397.296 622.91C338.976 628.026 278.496 641.488 203.472 641.488C184.608 641.488 165.888 640.276 146.88 639.199C102.528 636.507 59.04 634.353 17.136 642.834C-66.672 659.528 -142.416 722.398 -166.608 802.769" stroke="#FF8703" stroke-miterlimit="10"/>
<path d="M1805.47 256.595C1757.38 233.44 1705.97 219.843 1653.55 207.188C1615.39 197.899 1577.23 191.437 1538.93 189.148C1469.52 184.975 1398.67 195.879 1335.74 227.92C1315.73 238.152 1297.15 250.268 1280.59 264.403C1197.22 335.485 1171.44 441.974 1121.9 534.327C1059.26 650.373 935.568 753.496 787.104 737.88C716.688 730.475 657.648 694.665 594.576 667.067C543.168 644.584 497.664 630.987 454.176 625.333C431.712 622.371 409.248 621.833 386.352 622.641C327.312 624.525 266.112 634.353 191.088 633.545C172.224 633.276 153.36 632.199 134.352 631.122C89.8559 628.699 46.224 627.756 4.46396 637.045C-79.056 655.624 -153.792 719.167 -177.696 799.942" stroke="#FF8703" stroke-miterlimit="10"/>
<path d="M1809.36 261.038C1760.4 238.421 1708.27 224.42 1655.42 211.765C1616.83 202.476 1578.24 196.014 1539.36 193.725C1469.09 189.686 1397.23 200.86 1333.73 233.17C1313.42 243.536 1294.85 255.922 1278 270.327C1193.76 342.62 1168.7 450.59 1118.16 543.75C1054.08 661.143 926.064 762.65 776.304 745.822C705.888 737.879 646.56 702.608 583.632 674.336C532.656 651.45 487.44 636.507 443.952 628.833C421.344 624.929 398.88 623.179 375.84 622.64C316.08 621.16 254.16 627.487 178.992 625.871C160.128 625.468 141.264 624.391 122.256 623.448C77.616 621.429 33.984 621.429 -7.77601 631.795C-91.008 652.258 -164.736 716.474 -188.208 797.518" stroke="#FF8703" stroke-miterlimit="10"/>
<path d="M1813.1 265.48C1763.28 243.267 1710.58 228.862 1657.01 216.207C1617.98 206.918 1578.96 200.456 1539.5 198.168C1468.37 194.129 1395.5 205.572 1331.57 238.286C1311.12 248.787 1292.26 261.307 1275.41 275.981C1190.45 349.352 1165.97 459.071 1114.42 553.039C1048.75 671.913 916.416 771.805 765.36 753.765C694.944 745.418 635.328 710.55 572.544 681.471C522.144 658.181 476.928 641.892 433.44 632.199C410.832 627.218 388.224 624.256 365.04 622.506C304.56 617.659 241.92 620.352 166.752 618.063C147.888 617.525 128.88 616.313 109.872 615.64C65.088 613.89 21.312 615.101 -20.304 626.41C-103.392 648.623 -176.112 713.781 -199.152 794.96" stroke="#FF8703" stroke-miterlimit="10"/>
<path d="M1816.85 269.788C1766.16 247.979 1712.88 233.17 1658.59 220.515C1619.14 211.226 1579.54 204.764 1539.65 202.476C1467.65 198.572 1393.63 210.149 1329.26 243.402C1308.67 254.037 1289.52 266.826 1272.53 281.635C1186.7 356.217 1162.94 467.418 1110.24 562.194C1043.14 682.548 906.48 780.825 753.984 761.573C683.712 752.688 623.52 718.359 561.024 688.607C511.056 664.913 465.984 647.142 422.496 635.564C399.888 629.506 376.992 625.467 353.952 622.371C292.896 614.159 229.392 613.351 154.224 610.389C135.36 609.582 116.352 608.505 97.1999 607.966C52.2719 606.62 8.3519 608.909 -33.1201 621.025C-115.92 645.123 -187.632 710.954 -210.24 792.537" stroke="#FF8703" stroke-miterlimit="10"/>
<path d="M1820.59 274.231C1769.04 252.826 1715.04 237.748 1660.18 224.958C1620.29 215.669 1580.26 209.073 1539.94 207.053C1467.07 203.149 1392.05 215.131 1327.25 248.652C1306.37 259.422 1287.22 272.346 1269.94 287.559C1183.39 363.353 1160.21 476.034 1106.5 571.752C1037.81 693.453 896.976 790.114 743.184 769.651C672.912 760.362 612.432 726.436 550.08 696.011C500.688 671.913 455.76 652.797 412.272 639.199C389.52 632.199 366.624 626.814 343.44 622.506C281.664 610.928 217.44 606.62 142.272 602.851C123.408 601.908 104.256 600.831 85.104 600.427C40.032 599.35 -4.03198 602.851 -45.36 615.909C-127.872 641.892 -198.576 708.397 -220.896 790.249" stroke="#FF8703" stroke-miterlimit="10"/>
<path d="M1824.48 278.673C1772.06 257.672 1717.49 242.19 1662.05 229.401C1621.73 220.111 1581.26 213.515 1540.37 211.495C1466.5 207.726 1390.46 219.842 1325.23 253.768C1304.21 264.672 1284.77 277.866 1267.34 293.213C1179.94 370.218 1157.47 484.515 1102.75 580.906C1032.48 704.088 887.184 799.134 732.24 777.459C661.968 767.631 601.056 734.244 538.992 703.011C490.176 678.51 445.248 657.912 401.76 642.43C379.008 634.353 355.968 627.756 332.64 622.236C270.144 607.293 205.2 599.485 130.032 594.907C111.024 593.696 92.0159 592.753 72.7199 592.35C27.5039 591.676 -16.704 596.254 -57.888 610.255C-140.112 638.122 -209.808 705.435 -231.696 787.556" stroke="#FF8703" stroke-miterlimit="10"/>
<path d="M1828.22 283.116C1774.94 262.519 1719.79 246.633 1663.63 233.844C1622.88 224.554 1581.84 217.958 1540.51 215.938C1465.78 212.169 1388.74 224.554 1322.93 259.018C1301.76 270.058 1282.03 283.386 1264.46 299.002C1176.34 377.085 1154.45 492.997 1098.72 590.33C1027.01 714.993 877.536 808.423 721.152 785.537C650.88 775.305 589.68 742.187 527.904 710.416C479.52 685.51 434.88 663.566 391.392 646.2C368.64 637.045 345.456 629.237 321.984 622.506C258.912 604.062 193.104 592.754 117.936 587.638C98.9279 586.292 79.9199 585.215 60.6239 585.08C15.264 584.676 -28.9441 590.33 -70.128 605.274C-152.208 634.891 -220.896 703.012 -242.352 785.402" stroke="#FF8703" stroke-miterlimit="10"/>
<path d="M1831.97 287.424C1777.82 267.23 1721.95 251.075 1665.22 238.286C1624.03 228.997 1582.56 222.4 1540.66 220.381C1465.06 216.746 1387.01 229.266 1320.77 264.134C1299.31 275.443 1279.58 288.905 1261.73 304.791C1172.88 384.085 1151.57 501.478 1094.83 599.62C1021.68 725.629 867.744 817.443 710.208 793.345C639.936 782.575 578.448 749.996 516.816 717.551C469.008 692.242 424.368 668.951 380.88 649.565C358.128 639.469 334.8 630.314 311.184 622.237C247.536 600.427 180.864 585.619 105.696 579.695C86.6879 578.214 67.536 577.137 48.24 577.137C2.73596 577.137 -41.616 583.868 -82.656 599.754C-164.592 631.122 -232.272 699.915 -253.296 782.575" stroke="#FF8703" stroke-miterlimit="10"/>
<path d="M1835.71 291.867C1780.7 272.212 1724.26 255.518 1666.94 242.729C1625.33 233.44 1583.42 226.843 1540.94 224.824C1464.48 221.189 1385.28 234.113 1318.61 269.25C1297.01 280.693 1276.99 294.29 1258.99 310.445C1169.28 390.951 1148.69 509.96 1090.8 608.909C1016.21 736.399 858.096 826.598 699.12 801.288C628.992 790.114 566.928 757.939 505.584 724.686C458.208 698.973 413.856 674.202 370.224 652.931C347.328 641.757 324 631.526 300.384 622.102C236.16 596.793 168.624 578.618 93.4559 571.887C74.4479 570.137 55.2959 569.195 35.8559 569.329C-9.79208 569.598 -54.2881 577.541 -95.1841 594.369C-176.688 627.622 -243.504 697.223 -264.096 780.152" stroke="#FF8703" stroke-miterlimit="10"/>
<path d="M1839.46 296.31C1783.58 277.058 1726.56 259.961 1668.53 247.172C1626.48 237.882 1584 231.286 1541.09 229.266C1463.76 225.766 1383.55 238.825 1316.3 274.366C1294.56 285.944 1274.26 299.81 1256.26 316.1C1165.82 397.817 1145.81 518.306 1086.91 618.063C1010.88 747.034 848.448 835.752 688.176 809.096C618.048 797.384 555.696 765.747 494.496 731.821C447.552 705.704 403.488 679.452 359.856 656.297C336.96 644.046 313.488 632.603 289.728 621.968C224.928 593.292 156.528 571.618 81.36 564.079C62.352 562.194 43.056 561.117 23.616 561.386C-22.176 562.059 -66.816 571.079 -107.568 588.715C-189.072 623.987 -254.736 694.396 -274.896 777.594" stroke="#FFAB24" stroke-miterlimit="10"/>
<path d="M1843.34 300.752C1786.61 281.905 1728.86 264.538 1670.26 251.614C1627.78 242.325 1584.86 235.728 1541.38 233.709C1463.18 230.209 1381.97 243.537 1314.29 279.616C1292.26 291.328 1271.95 305.329 1253.66 321.888C1162.37 404.683 1143.07 526.788 1083.17 627.487C1005.41 757.804 838.656 845.176 677.232 817.039C607.104 805.058 544.32 773.825 483.408 738.957C437.04 712.57 392.976 684.837 349.344 659.663C326.448 646.335 302.976 633.68 278.928 621.833C213.552 589.657 144.288 564.483 69.1199 556.405C50.1119 554.386 30.8159 553.309 11.2319 553.713C-34.7041 554.655 -79.4881 564.886 -120.24 583.465C-201.312 620.487 -265.968 691.569 -285.84 775.036" stroke="#FFB700" stroke-miterlimit="10"/>
<path d="M1847.09 305.06C1789.49 286.617 1731.17 268.846 1671.84 255.922C1628.93 246.633 1585.58 240.036 1541.52 238.017C1462.46 234.651 1380.1 248.248 1311.98 284.597C1289.81 296.444 1269.22 310.714 1250.78 327.543C1158.77 411.549 1140.05 535.269 1079.14 636.642C999.936 768.439 828.864 854.061 666 824.847C595.872 812.327 532.656 781.633 472.032 746.092C426.096 719.301 382.32 690.222 338.688 663.028C315.792 648.758 292.176 634.757 267.984 621.698C202.032 586.157 131.904 557.482 56.7361 548.597C37.7281 546.308 18.2881 545.366 -1.15191 545.904C-47.2319 547.251 -92.0159 558.424 -132.768 578.08C-213.552 616.986 -277.344 688.876 -296.64 772.613" stroke="#FF8703" stroke-miterlimit="10"/>
<path d="M1850.83 309.503C1750.03 278.404 1647.79 247.037 1541.81 242.594C1435.82 238.151 1323.79 263.865 1248.19 333.331C1155.31 418.549 1137.31 543.75 1075.39 645.931C994.608 779.075 819.36 863.081 655.2 832.79C532.512 810.038 430.128 734.379 328.32 666.394C226.512 598.408 111.6 533.653 -13.3921 538.096C-151.488 543.212 -278.928 643.777 -307.44 770.055" stroke="#FF8703" stroke-miterlimit="10"/>
<path d="M-299.664 768.439C-271.728 651.45 -157.824 558.155 -30.8159 543.616C-22.4639 542.673 -14.1119 542 -5.75994 541.866C114.048 538.231 224.64 597.735 323.568 661.682C327.024 663.836 330.336 666.124 333.792 668.278C435.312 734.649 537.84 808.019 659.376 828.751C822.096 856.215 993.6 770.728 1075.68 639.873C1086.19 623.044 1095.7 605.543 1104.48 587.773C1147.97 499.863 1175.9 404.952 1253.52 337.101C1292.26 303.31 1339.92 280.424 1391.33 266.557C1441.01 253.23 1494.29 248.383 1545.98 250.537C1651.39 254.71 1753.2 284.059 1852.56 311.657" stroke="#FF8703" stroke-miterlimit="10"/>
<path d="M-292.032 766.824C-262.944 651.315 -149.04 560.578 -23.04 547.116C-14.832 546.173 -6.47996 545.635 1.87204 545.5C120.672 542.404 230.4 601.1 329.04 663.566C332.496 665.72 335.808 667.874 339.264 670.028C440.496 734.918 543.024 806 663.552 824.578C824.976 849.214 992.736 762.112 1075.97 633.68C1086.77 617.121 1096.27 600.023 1105.34 582.657C1150.27 496.901 1180.66 405.759 1258.85 340.87C1297.87 308.56 1345.39 286.751 1396.51 273.692C1445.9 261.038 1498.75 256.595 1550.3 258.48C1655.14 262.384 1756.37 289.713 1854.29 313.945" stroke="#FFAB24" stroke-miterlimit="10"/>
<path d="M-284.256 765.208C-254.016 651.181 -139.968 563.136 -15.12 550.616C-6.91198 549.808 1.29603 549.27 9.50403 549.135C127.296 546.712 236.16 604.466 334.512 665.451C337.968 667.605 341.28 669.625 344.736 671.779C445.824 735.187 548.352 803.98 667.584 820.405C827.712 842.214 991.728 753.496 1076.11 627.487C1087.06 611.197 1096.85 594.504 1106.21 577.541C1152.58 493.804 1185.41 406.433 1264.03 344.505C1303.2 313.676 1350.72 293.079 1401.55 280.693C1450.66 268.846 1503.22 264.538 1554.34 266.288C1658.59 269.923 1759.39 295.367 1855.87 315.965" stroke="#FEB700" stroke-miterlimit="10"/>
<path d="M-276.624 763.593C-245.232 651.047 -131.184 565.56 -7.2 553.982C0.863996 553.174 9.072 552.77 17.28 552.636C134.064 550.886 242.064 607.697 340.128 667.336C343.584 669.356 346.896 671.51 350.208 673.529C451.008 735.322 553.536 801.961 671.76 816.231C830.448 835.079 990.72 744.88 1076.54 621.16C1087.63 605.274 1097.71 588.85 1107.36 572.426C1155.17 490.843 1190.45 407.106 1269.5 348.275C1308.96 318.927 1356.34 299.406 1406.74 287.828C1455.55 276.654 1507.68 272.75 1558.51 274.366C1662.19 277.731 1762.42 301.156 1857.46 318.388" stroke="#FF8703" stroke-miterlimit="10"/>
<path d="M-268.848 761.977C-236.304 650.912 -122.256 567.983 0.719962 557.482C8.78396 556.809 16.848 556.405 24.912 556.27C140.688 555.193 247.824 611.063 345.6 669.221C348.912 671.24 352.368 673.26 355.68 675.279C456.192 735.591 558.864 799.807 675.936 812.058C833.328 828.078 989.712 736.264 1076.83 614.967C1088.06 599.35 1098.43 583.33 1108.37 567.31C1157.62 487.881 1195.34 407.914 1274.83 351.91C1314.43 324.042 1361.81 305.599 1411.92 294.829C1460.45 284.328 1512.29 280.693 1562.83 282.174C1665.94 285.27 1765.73 306.676 1859.33 320.542" stroke="#FF8703" stroke-miterlimit="10"/>
<path d="M-261.072 760.362C-227.376 650.777 -113.328 570.54 8.63997 560.982C16.56 560.309 24.624 560.04 32.688 560.04C147.456 559.636 253.872 614.563 351.216 671.375C354.528 673.394 357.984 675.279 361.296 677.298C461.52 735.995 564.336 798.057 680.256 808.154C836.352 821.347 988.992 727.917 1077.26 609.043C1088.64 593.696 1099.15 578.079 1109.38 562.463C1160.06 485.054 1200.24 408.856 1280.16 355.814C1320.05 329.427 1367.14 312.195 1417.1 302.098C1465.34 292.271 1516.9 288.905 1567.01 290.386C1669.68 293.213 1768.75 312.599 1860.91 322.965" stroke="#FF8703" stroke-miterlimit="10"/>
<path d="M-253.44 758.746C-218.592 650.643 -104.544 572.964 16.5599 564.348C24.4799 563.809 32.3999 563.54 40.4639 563.54C154.224 563.809 259.776 617.929 356.832 673.125C360.144 675.01 363.6 676.894 366.912 678.914C466.992 736.129 569.664 795.903 684.576 803.846C839.232 814.077 988.128 719.167 1077.7 602.581C1089.22 587.503 1100.02 572.291 1110.53 557.078C1162.66 481.823 1205.28 409.26 1285.63 359.314C1325.81 334.408 1372.75 318.253 1422.29 308.83C1470.24 299.675 1521.36 296.713 1571.33 297.925C1673.42 300.348 1771.92 317.85 1862.78 324.85" stroke="#FF8703" stroke-miterlimit="10"/>
<path d="M-245.664 757.131C-209.664 650.508 -95.4719 575.522 24.4801 567.848C32.4001 567.31 40.176 567.175 48.096 567.175C160.848 568.117 265.536 621.294 362.304 675.01C365.616 676.894 369.072 678.779 372.384 680.664C472.176 736.264 574.992 793.749 688.608 799.672C841.968 807.077 987.12 710.551 1077.84 596.389C1089.5 581.715 1100.59 566.771 1111.39 551.962C1165.1 478.861 1210.03 410.068 1290.96 362.949C1331.28 339.524 1378.22 324.581 1427.47 315.83C1475.14 307.483 1525.97 304.656 1575.5 305.733C1677.02 307.887 1775.09 323.369 1864.37 326.869" stroke="#FF8703" stroke-miterlimit="10"/>
<path d="M-237.888 755.515C-200.736 650.239 -86.5441 577.945 32.3999 571.214C40.1759 570.81 47.9519 570.541 55.872 570.675C167.616 572.291 271.44 624.525 367.92 676.894C371.232 678.644 374.544 680.529 378 682.279C477.504 736.399 580.464 791.595 692.928 795.364C844.992 799.942 986.256 701.8 1078.27 590.061C1090.08 575.656 1101.46 561.117 1112.54 546.847C1167.7 475.765 1215.07 410.741 1296.43 366.718C1337.04 344.774 1383.84 330.908 1432.8 322.965C1480.18 315.292 1530.58 312.868 1579.82 313.811C1680.77 315.695 1778.26 329.293 1866.24 329.293" stroke="#FFB700" stroke-miterlimit="10"/>
<path d="M-230.256 753.765C-191.952 650.104 -77.76 580.368 40.32 574.579C48.096 574.175 55.728 574.041 63.504 574.31C174.24 576.464 277.2 627.891 373.392 678.779C376.704 680.529 380.016 682.279 383.328 684.03C482.544 736.533 585.504 789.71 696.96 791.191C847.584 793.21 985.104 693.184 1078.42 583.869C1090.51 569.733 1101.89 555.597 1113.41 541.731C1170 472.803 1219.68 411.414 1301.62 370.353C1342.37 349.89 1389.02 337.235 1437.7 329.966C1484.78 322.965 1534.9 320.811 1583.86 321.619C1684.22 323.234 1781.28 334.812 1867.68 331.312" stroke="#E4B847" stroke-miterlimit="10"/>
<path d="M-222.48 752.15C-183.024 649.969 -68.832 582.791 48.24 578.08C55.872 577.81 63.648 577.676 71.28 577.945C181.008 580.772 283.104 631.256 379.008 680.798C382.32 682.549 385.632 684.164 388.944 685.914C487.872 736.937 590.976 787.825 701.28 787.152C850.608 786.21 984.384 684.703 1078.85 577.676C1091.09 563.944 1102.75 550.078 1114.42 536.615C1172.45 469.841 1224.58 412.222 1306.94 374.123C1347.98 355.141 1394.5 343.563 1442.88 337.101C1489.68 330.773 1539.5 329.023 1588.03 329.696C1687.82 331.043 1784.3 340.601 1869.41 333.735" stroke="#FF8703" stroke-miterlimit="10"/>
<path d="M-214.704 750.534C-174.096 649.835 -59.904 585.349 56.16 581.58C63.792 581.311 71.424 581.311 79.056 581.58C187.776 585.08 289.008 634.757 384.624 682.683C387.936 684.299 391.248 686.049 394.56 687.664C493.344 737.206 596.448 785.806 705.456 782.979C853.488 779.209 983.376 676.087 1079.14 571.483C1091.52 558.021 1103.47 544.558 1115.42 531.499C1174.9 466.745 1229.47 412.895 1312.27 377.758C1353.6 360.256 1399.97 349.89 1448.06 344.101C1494.72 338.582 1543.97 336.966 1592.35 337.505C1691.57 338.582 1787.62 346.121 1871.14 335.755" stroke="#FF8703" stroke-miterlimit="10"/>
<path d="M-207.072 748.919C-165.312 649.7 -50.976 587.773 64.08 584.946C71.568 584.811 79.2 584.811 86.688 585.08C194.4 589.254 294.912 637.988 390.096 684.433C393.408 686.049 396.72 687.664 400.032 689.28C498.528 737.206 601.632 783.518 709.632 778.671C856.224 772.074 982.368 667.336 1079.42 565.156C1091.95 551.962 1104.19 538.904 1116.43 526.249C1177.34 463.648 1234.37 413.433 1317.6 381.393C1359.07 365.372 1405.44 356.083 1453.1 351.102C1499.47 346.255 1548.43 345.044 1596.38 345.448C1695.02 346.255 1790.5 351.775 1872.72 338.043" stroke="#FF8703" stroke-miterlimit="10"/>
<path d="M-199.296 747.303C-156.384 649.565 -42.048 590.196 72 588.446C79.488 588.311 86.976 588.446 94.464 588.715C201.168 593.561 300.816 641.353 395.712 686.453C399.024 688.068 402.336 689.549 405.648 691.165C503.856 737.61 607.104 781.633 713.952 774.632C859.248 765.208 981.648 658.72 1080 559.097C1092.67 546.173 1105.06 533.519 1117.73 521.402C1180.08 460.956 1239.55 414.376 1323.36 385.297C1365.12 370.757 1411.34 362.68 1458.72 358.237C1504.8 354.064 1553.33 353.121 1600.99 353.39C1699.06 353.929 1794.1 357.429 1874.88 340.197" stroke="#FF8703" stroke-miterlimit="10"/>
<path d="M-191.52 745.688C-147.456 649.431 -33.12 592.754 79.92 591.811C87.264 591.811 94.752 591.946 102.096 592.35C207.792 597.87 306.576 644.719 401.184 688.338C404.496 689.818 407.808 691.299 410.976 692.915C508.896 737.745 612.288 779.613 717.984 770.459C861.984 758.073 980.496 650.104 1080.14 552.77C1092.96 540.25 1105.63 527.865 1118.45 516.152C1182.24 457.725 1244.16 415.049 1328.4 388.932C1370.45 375.873 1416.38 368.872 1463.62 365.238C1509.41 361.737 1557.65 361.064 1605.02 361.199C1702.51 361.468 1796.98 363.084 1876.32 342.351" stroke="#FF8703" stroke-miterlimit="10"/>
<path d="M-183.888 744.072C-138.672 649.296 -24.336 595.177 87.84 595.312C95.184 595.312 102.528 595.581 109.872 595.985C214.56 602.177 312.48 648.085 406.8 690.357C410.112 691.838 413.28 693.319 416.592 694.665C514.368 738.014 617.616 777.459 722.304 766.285C864.864 751.073 979.632 641.488 1080.58 546.577C1093.54 534.326 1106.5 522.345 1119.6 511.036C1184.83 454.763 1249.2 415.722 1333.87 392.566C1376.06 380.989 1422 375.065 1468.8 372.238C1514.3 369.545 1562.26 369.142 1609.2 369.142C1706.11 369.142 1800 368.738 1878.05 344.64" stroke="#FF8703" stroke-miterlimit="10"/>
<path d="M-176.112 742.457C-129.6 649.162 -15.2639 597.6 95.7601 598.677C102.96 598.812 110.304 599.081 117.504 599.485C221.184 606.351 318.24 651.316 412.272 692.107C415.584 693.453 418.752 694.934 422.064 696.28C519.552 738.014 622.944 775.305 726.336 761.977C867.6 743.803 978.624 632.737 1080.72 540.25C1093.82 528.268 1107.07 516.691 1120.46 505.786C1187.14 451.532 1253.95 416.26 1339.06 396.201C1381.54 386.104 1427.33 381.392 1473.84 379.238C1519.06 377.219 1566.58 377.084 1613.23 376.95C1709.71 376.681 1803.02 374.257 1879.49 346.659" stroke="#F7CC61" stroke-miterlimit="10"/>
<path d="M-168.336 740.841C-120.672 649.027 -6.33606 600.158 103.68 602.177C110.88 602.312 118.08 602.581 125.28 603.12C228.096 610.659 324.144 654.816 417.888 693.992C421.2 695.338 424.368 696.684 427.68 698.03C524.88 738.283 628.416 773.286 730.656 757.804C870.624 736.803 977.76 624.121 1081.15 534.057C1094.54 522.48 1107.79 511.171 1121.62 500.67C1189.73 448.57 1258.99 417.068 1344.53 399.836C1387.15 391.22 1432.94 387.585 1479.17 386.239C1524.1 384.893 1571.33 385.162 1617.7 384.893C1713.6 384.22 1806.34 379.912 1881.5 348.948" stroke="#FFB700" stroke-miterlimit="10"/>
<path d="M-160.704 739.226C-111.888 648.892 2.44803 602.581 111.6 605.678C118.8 605.812 125.856 606.216 133.056 606.889C234.864 614.967 330.048 658.316 423.504 696.146C426.816 697.492 429.984 698.704 433.296 700.05C530.208 738.687 633.744 771.401 734.976 753.9C873.504 729.937 976.896 615.775 1081.58 527.999C1095.12 516.691 1108.66 505.786 1122.62 495.824C1192.18 445.878 1263.89 418.01 1349.86 403.74C1392.77 396.605 1438.27 394.182 1484.21 393.509C1528.85 392.836 1575.65 393.374 1621.73 392.97C1717.06 392.028 1809.36 385.7 1882.94 351.236" stroke="#FF8703" stroke-miterlimit="10"/>
<path d="M-152.928 737.61C-102.96 648.758 11.376 605.139 119.52 609.043C126.576 609.313 133.632 609.716 140.688 610.39C241.488 619.14 335.808 661.547 428.976 697.896C432.144 699.107 435.456 700.454 438.624 701.665C535.248 738.822 638.928 768.978 739.008 749.726C876.24 722.667 975.888 607.159 1081.73 521.806C1095.41 510.767 1109.23 500.266 1123.49 490.708C1194.48 442.781 1268.64 418.684 1355.18 407.51C1398.38 401.855 1443.74 400.509 1489.39 400.644C1533.74 400.644 1580.26 401.586 1626.05 401.048C1720.8 399.836 1812.53 391.489 1884.82 353.66" stroke="#FF8703" stroke-miterlimit="10"/>
<path d="M-145.296 735.995C-94.176 648.623 20.16 607.563 127.296 612.544C134.352 612.813 141.264 613.351 148.32 614.025C248.112 623.448 341.712 664.913 434.448 699.781C437.616 700.992 440.928 702.204 444.096 703.416C540.576 739.091 644.112 766.959 743.04 745.553C878.832 715.666 974.736 598.543 1081.87 515.614C1095.7 504.978 1109.81 494.747 1124.35 485.592C1196.78 439.82 1273.39 419.491 1360.37 411.145C1403.71 406.971 1449.07 406.837 1494.43 407.51C1538.5 408.318 1584.72 409.395 1630.08 408.721C1724.26 407.241 1815.55 397.009 1886.26 355.545" stroke="#FF8703" stroke-miterlimit="10"/>
<path d="M-137.52 734.379C-85.248 648.489 29.232 610.12 135.36 616.044C142.272 616.448 149.184 616.986 156.096 617.659C254.88 627.756 347.616 668.278 440.064 701.8C443.232 703.012 446.544 704.089 449.712 705.3C545.904 739.36 649.584 765.074 747.36 741.514C881.856 708.801 974.016 590.061 1082.3 509.421C1096.27 499.055 1110.53 489.227 1125.5 480.477C1199.38 436.858 1278.43 420.165 1365.84 414.914C1409.47 412.356 1454.69 413.164 1499.62 414.645C1543.39 416.126 1589.18 417.607 1634.26 416.664C1727.86 414.914 1818.58 402.663 1887.98 357.833" stroke="#FFAB24" stroke-miterlimit="10"/>
<path d="M-129.744 732.629C-76.32 648.219 38.16 612.409 143.28 619.275C150.192 619.679 156.96 620.352 163.872 621.025C261.648 631.795 353.52 671.375 445.68 703.415C448.848 704.492 452.016 705.569 455.328 706.781C551.232 739.36 654.912 762.65 751.68 737.072C884.736 701.396 973.152 581.176 1082.74 502.959C1096.85 492.862 1111.39 483.573 1126.51 475.091C1201.97 433.492 1283.33 420.568 1371.17 418.28C1415.09 417.203 1460.02 419.222 1504.8 421.376C1548.29 423.53 1593.79 425.28 1638.58 424.338C1731.6 422.319 1821.89 408.048 1889.71 359.718" stroke="#FEB700" stroke-miterlimit="10"/>
<path d="M-122.112 731.014C-67.536 648.085 46.944 614.832 151.056 622.775C157.824 623.314 164.592 623.987 171.504 624.795C268.272 636.238 359.28 675.01 451.152 705.569C454.32 706.646 457.488 707.724 460.8 708.666C556.416 739.63 660.24 760.766 755.856 733.033C887.616 694.53 972.144 572.695 1083.17 496.901C1097.42 487.073 1112.26 478.188 1127.66 470.245C1204.56 430.8 1288.37 421.645 1376.64 422.319C1420.7 422.722 1465.63 425.819 1510.13 428.781C1553.33 431.608 1598.4 433.627 1642.9 432.55C1735.34 430.261 1825.06 413.972 1891.58 362.276" stroke="#FF8703" stroke-miterlimit="10"/>
<path d="M-114.336 729.398C-58.608 647.95 55.872 617.39 159.12 626.141C165.888 626.679 172.656 627.487 179.28 628.295C275.04 640.411 365.184 678.241 456.912 707.32C460.08 708.262 463.248 709.339 466.416 710.281C561.888 739.764 665.712 758.612 760.032 728.725C890.496 687.395 971.28 563.944 1083.46 490.573C1097.86 481.15 1112.98 472.534 1128.67 464.995C1207.01 427.703 1293.26 422.184 1381.97 425.819C1426.32 427.703 1471.1 432.011 1515.17 435.646C1558.08 439.281 1602.86 441.57 1647.07 440.358C1738.94 437.8 1828.22 419.491 1893.17 364.295" stroke="#FF8703" stroke-miterlimit="10"/>
<path d="M-106.56 727.783C-49.68 647.815 64.944 619.813 167.04 629.641C269.136 639.469 364.752 679.722 462.384 709.204C560.16 738.822 667.872 757.669 764.208 724.552C909.936 674.74 989.28 521.941 1129.68 459.879C1249.2 407.106 1388.88 429.454 1520.35 442.647C1651.82 455.84 1800.72 453.148 1894.9 366.449" stroke="#FF8703" stroke-miterlimit="10"/>
</g>
</svg>
