<svg width="23" height="24" viewBox="0 0 23 24" fill="none" xmlns="http://www.w3.org/2000/svg">
<path d="M7.93497 5.72294L6.22914 4.86044L7.43664 2.41669H15.5537L16.7708 4.86044L15.065 5.71335L14.375 4.33335H8.62497L7.93497 5.72294ZM17.8441 8.16669H13.5029L12.7458 5.29169H10.2541L9.49705 8.16669H5.1558L3.92914 10.6104L5.64455 11.4634L6.34414 10.0834H16.6558L17.3458 11.4729L19.0612 10.62L17.8441 8.16669ZM17.0296 21.5834H15.0458L14.8158 20.7209L11.5 15.7375L8.17455 20.7209L7.95414 21.5834H5.97039L8.73997 11.0417H10.7237L10.3787 12.3354L11.5 14.0125L12.6116 12.3354L12.2762 11.0417H14.26L17.0296 21.5834ZM10.925 14.875L10.0625 13.5813L8.93164 17.8746L10.925 14.875ZM14.0683 17.865L12.9375 13.5717L12.075 14.875L14.0683 17.865Z" fill="#222222"/>
</svg>
