<svg width="23" height="24" viewBox="0 0 23 24" fill="none" xmlns="http://www.w3.org/2000/svg">
<path d="M6.74185 3.85419C5.87935 3.85419 5.18073 4.50106 5.07723 5.31756C5.14028 5.30017 5.2054 5.29146 5.27081 5.29169H17.7291C17.7962 5.29169 17.8604 5.30127 17.9218 5.31756C17.8698 4.91307 17.6722 4.54137 17.366 4.27202C17.0598 4.00267 16.6659 3.85413 16.2581 3.85419H6.74185ZM6.56456 19.5038C6.58346 19.68 6.66681 19.843 6.79859 19.9615C6.93037 20.08 7.10129 20.1457 7.27852 20.1459H15.7186C15.896 20.1459 16.0671 20.0804 16.1991 19.9618C16.3311 19.8433 16.4146 19.6802 16.4335 19.5038L17.8154 6.72535C17.7868 6.72866 17.758 6.73026 17.7291 6.73014H5.27081C5.24167 6.7303 5.21255 6.7287 5.1836 6.72535L6.56456 19.5038ZM3.64452 5.86669C3.59741 5.43185 3.64243 4.99196 3.77662 4.57568C3.91081 4.15939 4.13118 3.77603 4.42338 3.45057C4.71557 3.12511 5.07304 2.86484 5.4725 2.6867C5.87196 2.50857 6.30447 2.41657 6.74185 2.41669H16.2581C16.6954 2.4167 17.1278 2.5088 17.5271 2.68699C17.9265 2.86519 18.2838 3.12548 18.5759 3.45093C18.868 3.77638 19.0883 4.15968 19.2224 4.57591C19.3566 4.99213 19.4016 5.43193 19.3545 5.86669L17.8633 19.6581C17.8063 20.1869 17.5559 20.676 17.1602 21.0314C16.7645 21.3867 16.2514 21.5833 15.7195 21.5834H7.27948C6.74775 21.5834 6.23477 21.3869 5.83907 21.0317C5.44338 20.6765 5.19287 20.1877 5.13568 19.659L3.64452 5.86669ZM11.3006 10.4763C11.3226 10.4437 11.3522 10.4169 11.3868 10.3985C11.4215 10.38 11.4602 10.3703 11.4995 10.3703C11.5388 10.3703 11.5775 10.38 11.6122 10.3985C11.6468 10.4169 11.6764 10.4437 11.6984 10.4763L12.3404 11.4346C12.4475 11.5907 12.6118 11.6983 12.7977 11.734C12.9836 11.7696 13.1761 11.7305 13.3333 11.6252C13.4906 11.5198 13.5999 11.3566 13.6376 11.1711C13.6752 10.9856 13.6382 10.7928 13.5345 10.6344L12.8934 9.67606C12.7401 9.44697 12.5328 9.25919 12.2896 9.12933C12.0465 8.99947 11.7751 8.93154 11.4995 8.93154C11.2239 8.93154 10.9525 8.99947 10.7094 9.12933C10.4662 9.25919 10.2589 9.44697 10.1056 9.67606L9.46448 10.6344C9.412 10.7129 9.37549 10.8009 9.35703 10.8935C9.33857 10.9861 9.33853 11.0814 9.35691 11.174C9.37528 11.2665 9.41172 11.3546 9.46413 11.4331C9.51654 11.5116 9.5839 11.5791 9.66237 11.6315C9.74084 11.684 9.82888 11.7205 9.92145 11.739C10.014 11.7574 10.1093 11.7575 10.2019 11.7391C10.2945 11.7207 10.3826 11.6843 10.4611 11.6319C10.5396 11.5795 10.607 11.5121 10.6595 11.4336L11.3006 10.4763ZM9.23448 12.575C9.39763 12.6731 9.5152 12.832 9.56138 13.0167C9.60755 13.2014 9.57856 13.3968 9.48077 13.5602L9.13193 14.1419C9.0884 14.2145 9.0649 14.2974 9.06383 14.3821C9.06276 14.4668 9.08416 14.5503 9.12584 14.624C9.16753 14.6978 9.22801 14.7591 9.30114 14.8019C9.37426 14.8446 9.4574 14.8672 9.5421 14.8674H10.3021C10.4927 14.8674 10.6755 14.9431 10.8103 15.0779C10.9451 15.2127 11.0208 15.3955 11.0208 15.5861C11.0208 15.7767 10.9451 15.9595 10.8103 16.0943C10.6755 16.2291 10.4927 16.3049 10.3021 16.3049H9.5421C8.05285 16.3049 7.13285 14.6795 7.89856 13.4021L8.24835 12.8204C8.34647 12.6569 8.50548 12.5392 8.69041 12.493C8.87534 12.4468 9.07104 12.476 9.23448 12.5741V12.575ZM13.5211 13.5602C13.4694 13.4792 13.4345 13.3887 13.4184 13.2939C13.4023 13.1992 13.4053 13.1022 13.4274 13.0087C13.4494 12.9152 13.4899 12.827 13.5466 12.7495C13.6033 12.6719 13.675 12.6064 13.7574 12.557C13.8398 12.5076 13.9313 12.4753 14.0264 12.4618C14.1215 12.4484 14.2184 12.4541 14.3113 12.4788C14.4041 12.5034 14.4911 12.5464 14.5671 12.6053C14.643 12.6641 14.7064 12.7376 14.7535 12.8213L15.1024 13.403C15.8681 14.6805 14.9481 16.3049 13.4588 16.3049H12.6979C12.5073 16.3049 12.3245 16.2291 12.1897 16.0943C12.0549 15.9595 11.9791 15.7767 11.9791 15.5861C11.9791 15.3955 12.0549 15.2127 12.1897 15.0779C12.3245 14.9431 12.5073 14.8674 12.6979 14.8674H13.4588C13.5436 14.8674 13.6269 14.8449 13.7001 14.8022C13.7734 14.7595 13.834 14.6982 13.8758 14.6244C13.9176 14.5507 13.9391 14.4671 13.938 14.3824C13.937 14.2976 13.9135 14.2146 13.8699 14.1419L13.5211 13.5602Z" fill="#222222"/>
</svg>
