<svg width="31" height="30" viewBox="0 0 31 30" fill="none" xmlns="http://www.w3.org/2000/svg">
<rect x="0.736816" width="30" height="30" rx="5" fill="#2E2E2E"/>
<path d="M10.4868 19.5H13.6668C13.7655 19.5005 13.8634 19.4816 13.9547 19.4443C14.0461 19.407 14.1292 19.352 14.1993 19.2825L19.3893 14.085L21.5193 12C21.5896 11.9302 21.6454 11.8473 21.6835 11.7559C21.7216 11.6645 21.7412 11.5665 21.7412 11.4675C21.7412 11.3684 21.7216 11.2704 21.6835 11.179C21.6454 11.0876 21.5896 11.0047 21.5193 10.935L18.3393 7.71745C18.2696 7.64716 18.1866 7.59136 18.0952 7.55329C18.0039 7.51521 17.9058 7.49561 17.8068 7.49561C17.7078 7.49561 17.6098 7.51521 17.5184 7.55329C17.427 7.59136 17.344 7.64716 17.2743 7.71745L15.1593 9.83995L9.95432 15.0375C9.88481 15.1075 9.82981 15.1906 9.79249 15.282C9.75516 15.3734 9.73625 15.4712 9.73682 15.57V18.75C9.73682 18.9489 9.81583 19.1396 9.95649 19.2803C10.0971 19.4209 10.2879 19.5 10.4868 19.5ZM17.8068 9.30745L19.9293 11.43L18.8643 12.495L16.7418 10.3725L17.8068 9.30745ZM11.2368 15.8775L15.6843 11.43L17.8068 13.5525L13.3593 18H11.2368V15.8775ZM22.4868 21H8.98682C8.7879 21 8.59714 21.079 8.45649 21.2196C8.31583 21.3603 8.23682 21.551 8.23682 21.75C8.23682 21.9489 8.31583 22.1396 8.45649 22.2803C8.59714 22.4209 8.7879 22.5 8.98682 22.5H22.4868C22.6857 22.5 22.8765 22.4209 23.0171 22.2803C23.1578 22.1396 23.2368 21.9489 23.2368 21.75C23.2368 21.551 23.1578 21.3603 23.0171 21.2196C22.8765 21.079 22.6857 21 22.4868 21Z" fill="white"/>
</svg>
