<?xml version="1.0" encoding="UTF-8"?>
<svg id="Calque_1" data-name="Calque 1" xmlns="http://www.w3.org/2000/svg" viewBox="0 0 1680.99 545.5">
  <defs>
    <style>
      .cls-1 {
        fill: none;
        stroke: #fcfcfc;
        stroke-miterlimit: 10;
      }
    </style>
  </defs>
  <path class="cls-1" d="M215.26,541.93c22.63-58.64,90.3-99.01,156.66-93.56,47.24,3.9,92.5,28.35,139.52,22.29,57.24-7.29,95.03-54.64,133.48-89.87,48.23-44.16,95.36-62.65,162.92-43.75,50.09,13.97,91.4,46.11,145.34,46.22,99.2,.21,147.76-96.85,179.5-170.08,31.97-73.74,63.61-151.8,144.58-189.59,66.35-31.02,132.6-27.73,201.59-8.01,33.18,9.45,65.69,15.82,93.16,37.9"/>
  <path class="cls-1" d="M1575.07,56.95c-28.12-21.77-61.19-28.45-94.81-37.9-24.72-6.98-49.11-11.81-73.28-13.87-44.27-3.8-87.89,2.16-131.28,22.49-13.4,6.37-25.6,13.76-36.58,22.08-55.92,42.52-81.84,108.35-109.41,170.59-32.85,74.26-84.7,170.18-184.89,169.05-54.05-.51-95.58-32.25-145.45-46.83-44.49-12.84-80.2-9.96-113.37,5.44-16.81,7.81-32.85,18.9-49.22,32.66-38.89,32.87-77.45,77.34-134.58,84.01-14.17,1.64-28.12,.72-42.08-1.44-32.52-5.14-64.6-17.05-97.55-19-66.24-4.11-133.15,36.87-155.45,95.72"/>
  <path class="cls-1" d="M1577.93,60.34c-28.78-21.47-62.29-28.45-96.46-37.9-25.05-6.98-49.87-11.91-74.37-13.87-44.93-3.7-89.43,2.36-133.04,23.01-13.62,6.47-25.82,13.97-36.91,22.6-56.47,43.44-81.96,110.41-110.3,173.37-33.94,75.39-89.21,169.98-190.38,167.92-53.94-.92-95.8-32.35-145.56-47.35-44.05-13.15-79.76-11.4-112.93,2.57-16.81,6.98-32.96,17.25-49.44,29.99-39.22,30.5-78.55,72.1-135.67,78.26-14.17,1.54-28.23,.62-42.19-1.54-32.63-4.83-64.82-15.92-97.66-17.25-66.13-2.57-132.27,38.93-154.24,97.98"/>
  <path class="cls-1" d="M1580.79,63.73c-29.44-21.16-63.39-28.35-98.1-37.9-25.38-6.98-50.53-11.91-75.47-13.87-45.59-3.7-90.85,2.57-134.9,23.62-13.73,6.57-26.14,14.28-37.35,23.01-57.02,44.37-82.06,112.56-111.18,176.04-35.15,76.52-93.6,169.57-195.77,166.9-53.94-1.34-96.02-32.46-145.67-47.96-43.61-13.56-79.21-12.63-112.38-.21-16.81,6.26-33.07,15.61-49.55,27.32-39.66,28.14-79.65,66.76-136.88,72.41-14.17,1.34-28.23,.41-42.3-1.54-32.74-4.62-65.04-14.79-97.77-15.41-65.8-1.23-131.17,40.88-152.92,100.14"/>
  <path class="cls-1" d="M1583.64,67.02c-30.1-20.85-64.59-28.35-99.63-37.9-25.71-6.98-51.2-11.91-76.57-13.87-46.25-3.59-92.28,2.88-136.67,24.14-13.84,6.68-26.47,14.48-37.79,23.42-57.68,45.19-82.18,114.62-112.05,178.81-36.25,77.54-97.99,169.26-201.15,165.87-53.94-1.85-96.34-32.56-145.78-48.48-43.28-13.97-78.77-13.97-111.94-3.08-16.81,5.55-33.07,13.97-49.77,24.65-40.1,25.68-80.75,61.52-137.98,66.55-14.17,1.23-28.34,.31-42.4-1.54-32.85-4.31-65.26-13.66-97.88-13.56-65.58,.1-130.29,42.83-151.6,102.29"/>
  <path class="cls-1" d="M1586.61,70.41c-30.76-20.54-65.69-28.35-101.29-37.8-26.03-6.98-51.96-11.91-77.66-13.87-46.91-3.59-93.82,3.08-138.53,24.65-14.06,6.78-26.69,14.79-38.23,23.93-58.22,46.11-82.29,116.67-112.93,181.48-37.47,78.67-102.39,169.05-206.64,164.74-53.94-2.16-96.56-32.56-145.89-48.99-42.84-14.28-78.22-15.3-111.51-5.96-16.92,4.72-33.18,12.32-49.99,21.98-40.43,23.31-81.84,56.28-139.08,60.7-14.17,1.13-28.34,.21-42.4-1.54-32.96-4.11-65.37-12.63-98.1-11.81-65.47,1.54-129.3,44.88-150.39,104.55"/>
  <path class="cls-1" d="M1589.47,73.8c-31.42-20.23-66.8-28.24-102.94-37.8-26.37-6.98-52.62-11.91-78.77-13.87-47.57-3.49-95.25,3.29-140.4,25.16-14.17,6.88-27.03,14.99-38.67,24.34-58.88,47.04-82.39,118.83-113.92,184.15-38.56,79.8-106.89,168.85-212.02,163.71-53.94-2.57-96.78-32.66-146-49.61-42.4-14.58-77.78-16.64-110.96-8.83-16.92,4.01-33.29,10.68-50.2,19.31-40.98,20.95-82.94,51.04-140.18,54.95-14.28,.92-28.34,0-42.51-1.64-33.07-3.8-65.58-11.5-98.21-9.96-65.26,2.98-128.31,46.83-149.08,106.71"/>
  <path class="cls-1" d="M1592.32,77.19c-32.08-19.92-68-28.24-104.47-37.8-26.7-6.98-53.28-11.91-79.87-13.87-48.23-3.49-96.67,3.49-142.16,25.78-14.28,6.98-27.35,15.3-39.11,24.75-59.44,47.96-82.51,120.88-114.8,186.92-39.77,80.83-111.28,168.54-217.52,162.68-53.83-2.98-97-32.66-146.11-50.12-42.08-14.89-77.23-17.97-110.52-11.71-16.92,3.18-33.4,9.04-50.42,16.64-41.42,18.59-84.04,45.7-141.28,49.09-14.28,.82-28.45-.1-42.62-1.64-33.18-3.59-65.8-10.37-98.32-8.11-65.04,4.31-127.43,48.79-147.87,108.87"/>
  <path class="cls-1" d="M1595.17,80.47c-32.74-19.51-69.1-28.24-106.12-37.8-27.02-6.98-54.05-11.91-80.97-13.87-48.99-3.39-98.21,3.8-144.02,26.29-14.5,7.09-27.58,15.51-39.55,25.27-60.09,48.78-82.61,122.94-115.68,189.59-40.87,81.96-115.68,168.33-222.9,161.56-53.83-3.39-97.22-32.76-146.22-50.63-41.64-15.3-76.79-19.31-109.97-14.58-17.03,2.46-33.51,7.39-50.53,13.97-41.86,16.13-85.14,40.47-142.38,43.24-14.28,.72-28.45-.21-42.73-1.64-33.29-3.29-66.02-9.24-98.43-6.37-64.82,5.75-126.45,50.74-146.55,111.13"/>
  <path class="cls-1" d="M1598.03,83.86c-33.4-19.21-70.2-28.14-107.77-37.8-27.35-6.98-54.71-11.91-82.06-13.76-49.66-3.39-99.64,4.01-145.9,26.81-14.61,7.19-27.9,15.82-39.88,25.68-60.64,49.71-82.72,124.99-116.56,192.37-42.07,83.09-120.08,168.13-228.29,160.53-53.83-3.8-97.55-32.76-146.33-51.25-41.2-15.61-76.35-20.75-109.53-17.46-17.03,1.64-33.62,5.75-50.75,11.3-42.4,13.76-86.24,35.23-143.47,37.49-14.28,.51-28.56-.31-42.84-1.64-33.4-3.08-66.24-8.11-98.54-4.52-64.71,7.19-125.46,52.79-145.23,113.28"/>
  <path class="cls-1" d="M1601,87.25c-34.06-18.9-71.41-28.14-109.42-37.69-27.69-6.98-55.36-12.02-83.05-13.76-50.31-3.29-101.07,4.21-147.65,27.42-14.72,7.29-28.23,16.02-40.32,26.09-61.3,50.63-82.83,127.15-117.43,195.04-43.17,84.12-124.47,167.92-233.78,159.5-53.83-4.21-97.77-32.87-146.44-51.76-40.87-15.92-75.8-22.08-108.98-20.34-17.03,.92-33.73,4.11-50.97,8.63-42.84,11.3-87.34,29.99-144.57,31.63-14.28,.41-28.56-.51-42.84-1.75-33.51-2.77-66.35-7.09-98.65-2.67-64.49,8.52-124.58,54.74-144.02,115.44"/>
  <path class="cls-1" d="M1603.86,90.64c-34.71-18.59-72.51-28.14-110.96-37.69-28.12-6.98-56.13-12.02-84.15-13.76-50.98-3.29-102.61,4.52-149.52,27.94-14.94,7.5-28.45,16.33-40.75,26.6-61.85,51.56-82.94,129.2-118.32,197.81-44.49,85.04-129.08,167.61-239.38,158.27-53.83-4.52-97.99-32.87-146.55-52.38-40.43-16.23-75.36-23.42-108.54-23.21-17.14,.1-33.84,2.46-51.19,5.96-43.39,8.83-88.44,24.65-145.67,25.78-14.28,.21-28.67-.62-42.95-1.75-33.62-2.57-66.57-5.96-98.76-.92-64.27,9.96-123.59,56.69-142.7,117.7"/>
  <path class="cls-1" d="M1606.71,93.93c-35.37-18.28-73.6-28.04-112.6-37.69-28.45-6.98-56.79-12.02-85.25-13.76-51.63-3.18-104.04,4.72-151.38,28.45-15.05,7.6-28.78,16.54-41.2,27.01-62.4,52.38-83.06,131.26-119.31,200.48-45.48,86.27-133.36,167.61-244.65,157.34-53.72-4.93-98.21-32.87-146.66-52.89-39.99-16.54-74.81-24.75-108.1-26.09-17.14-.72-34.06,.72-51.41,3.29-43.94,6.37-89.53,19.41-146.77,19.92-14.28,.1-28.67-.72-43.06-1.75-33.73-2.26-66.79-4.83-98.87,.92-64.05,11.4-122.6,58.75-141.5,119.86"/>
  <path class="cls-1" d="M1609.57,97.31c-36.03-17.97-74.82-28.04-114.25-37.69-28.78-6.98-57.45-12.02-86.35-13.76-52.29-3.18-105.46,4.93-153.14,29.07-15.16,7.7-29.11,16.84-41.64,27.42-63.05,53.3-83.16,133.41-120.18,203.25-46.58,87.4-137.76,167.41-250.04,156.32-53.72-5.34-98.54-32.87-146.77-53.41-39.66-16.84-74.37-26.09-107.55-28.96-17.14-1.44-34.17-.92-51.52,.62-44.49,3.9-90.63,14.17-147.87,14.17-14.39,0-28.67-.92-43.17-1.75-33.84-2.05-67.01-3.7-98.98,2.77-63.94,12.74-121.72,60.7-140.18,122.01"/>
  <path class="cls-1" d="M1612.42,100.7c-36.69-17.66-75.91-28.04-115.9-37.69-29.11-7.09-58.22-12.02-87.44-13.76-52.95-3.18-107,5.14-155.01,29.58-15.27,7.81-29.44,17.05-42.07,27.83-63.6,54.23-83.27,135.47-121.06,205.92-47.79,88.53-142.15,167.2-255.42,155.29-53.72-5.65-98.76-32.97-146.88-54.02-39.22-17.15-73.93-27.53-107.11-31.84-17.14-2.26-34.28-2.67-51.74-2.05-45.04,1.44-91.73,8.94-148.97,8.32-14.39-.21-28.78-1.03-43.28-1.85-33.95-1.85-67.23-2.57-99.09,4.52-63.72,14.17-120.73,62.65-138.97,124.27"/>
  <path class="cls-1" d="M1615.39,104.09c-37.35-17.25-77.12-27.94-117.44-37.59-29.44-7.09-58.88-12.02-88.54-13.76-53.61-3.08-108.43,5.44-156.87,30.09-15.49,7.91-29.66,17.36-42.52,28.35-64.27,55.15-83.38,137.52-121.94,208.59-48.89,89.56-146.55,167-260.8,154.16-53.72-6.06-98.98-32.97-146.99-54.54-38.89-17.46-73.38-28.86-106.56-34.71-17.25-2.98-34.39-4.31-51.96-4.72-45.59-1.13-92.83,3.7-150.17,2.46-14.39-.31-28.78-1.13-43.28-1.85-34.06-1.54-67.34-1.54-99.2,6.37-63.5,15.61-119.74,64.6-137.65,126.43"/>
  <path class="cls-1" d="M1618.24,107.48c-38.01-16.95-78.21-27.94-119.08-37.59-29.78-7.09-59.54-12.02-89.65-13.76-54.26-3.08-109.86,5.65-158.63,30.61-15.6,8.01-29.99,17.56-42.84,28.76-64.82,55.97-83.49,139.68-122.82,211.37-50.1,90.69-151.06,166.9-266.3,153.13-53.72-6.37-99.2-32.97-147.1-55.15-38.45-17.77-72.95-30.19-106.12-37.59-17.25-3.8-34.5-6.06-52.18-7.39-46.14-3.7-93.93-1.64-151.27-3.39-14.39-.41-28.89-1.34-43.39-1.85-34.17-1.34-67.56-.41-99.31,8.22-63.39,16.95-118.87,66.66-136.44,128.59"/>
  <path class="cls-1" d="M1621.1,110.77c-38.67-16.64-79.32-27.94-120.74-37.59-30.1-7.09-60.31-12.02-90.74-13.76-54.93-2.98-111.4,5.85-160.51,31.22-15.71,8.11-30.32,17.87-43.28,29.17-65.48,56.9-83.61,141.73-123.81,214.04-51.19,91.82-155.45,166.79-271.79,152.11-53.61-6.78-99.53-32.97-147.21-55.67-38.12-18.08-72.51-31.63-105.68-40.47-17.25-4.62-34.71-7.7-52.29-10.06-46.58-6.26-95.03-6.88-152.37-9.14-14.39-.62-28.89-1.44-43.5-1.85-34.28-1.03-67.78,.72-99.42,9.96-63.17,18.38-117.88,68.61-135.12,130.85"/>
  <path class="cls-1" d="M1623.96,114.16c-39.33-16.33-80.52-27.83-122.38-37.59-30.43-7.09-60.97-12.12-91.73-13.66-55.59-2.98-112.82,6.16-162.26,31.74-15.93,8.22-30.54,18.08-43.72,29.68-66.03,57.82-83.71,143.79-124.69,216.81-52.4,92.85-159.85,166.59-277.17,150.98-53.61-7.09-99.75-32.97-147.32-56.18-37.68-18.38-71.96-32.97-105.13-43.34-17.36-5.34-34.82-9.45-52.51-12.74-47.13-8.83-96.13-12.12-153.47-14.99-14.39-.72-29-1.54-43.61-1.85-34.39-.82-68,1.85-99.53,11.81-62.95,19.82-116.89,70.56-133.92,133"/>
  <path class="cls-1" d="M1626.93,117.55c-39.99-16.02-81.62-27.83-123.92-37.59-30.76-7.09-61.63-12.12-92.83-13.66-56.36-2.88-114.37,6.37-164.13,32.25-16.04,8.32-30.87,18.38-44.16,30.09-66.68,58.75-83.82,145.94-125.57,219.48-53.61,93.98-164.45,166.49-282.66,149.95-53.61-7.5-100.08-32.97-147.43-56.8-37.24-18.69-71.52-34.41-104.69-46.22-17.36-6.16-34.93-11.19-52.73-15.41-47.68-11.4-97.22-17.36-154.57-20.85-14.5-.92-29-1.64-43.72-1.95-34.5-.51-68.22,2.98-99.64,13.66-62.73,21.26-115.9,72.61-132.6,135.26"/>
  <path class="cls-1" d="M1629.78,120.94c-40.65-15.71-82.72-27.83-125.57-37.59-31.09-7.09-62.4-12.12-93.93-13.66-57.01-2.88-115.79,6.57-165.99,32.87-16.15,8.42-31.2,18.59-44.61,30.5-67.23,59.57-83.93,148-126.44,222.25-54.71,95.11-168.74,166.38-288.05,148.92-53.61-7.81-100.3-33.07-147.43-57.31-36.91-19-70.97-35.74-104.14-48.99-17.36-6.98-35.04-12.94-52.95-18.08-48.12-14.07-98.32-22.7-155.67-26.6-14.5-1.03-29-1.85-43.72-1.95-34.6-.31-68.33,4.01-99.75,15.41-62.62,22.59-115.02,74.56-131.39,137.42"/>
  <path class="cls-1" d="M1632.64,124.22c-41.31-15.41-83.93-27.73-127.21-37.49-31.42-7.09-63.06-12.12-95.03-13.66-57.68-2.77-117.22,6.78-167.75,33.38-16.37,8.63-31.42,18.9-45.04,31.02-67.78,60.49-84.04,150.05-127.33,224.92-55.81,96.13-173.24,166.18-293.43,147.79-53.61-8.22-100.52-33.07-147.54-57.82-36.47-19.31-70.53-37.08-103.71-51.87-17.36-7.7-35.15-14.69-53.17-20.85-48.56-16.64-99.42-27.94-156.77-32.46-14.5-1.13-29.11-1.95-43.83-1.95-34.71,0-68.55,5.14-99.86,17.25-62.51,23.93-114.14,76.41-130.18,139.47"/>
  <path class="cls-1" d="M1635.49,127.61c-41.97-14.99-85.02-27.73-128.75-37.49-31.74-7.09-63.72-12.12-96.13-13.66-58.33-2.77-118.75,7.09-169.62,33.89-16.48,8.73-31.75,19.1-45.48,31.43-68.44,61.42-84.15,152.21-128.31,227.7-56.9,97.26-177.53,166.07-298.81,146.77-53.5-8.52-100.85-33.07-147.65-58.44-36.14-19.62-69.98-38.51-103.27-54.74-17.47-8.52-35.26-16.33-53.28-23.52-49-19.31-100.52-33.17-157.87-38.31-14.5-1.34-29.11-2.05-43.94-1.95-34.82,.21-68.77,6.26-99.97,19.1-62.18,25.37-113.15,78.47-128.86,141.73"/>
  <path class="cls-1" d="M1638.35,131c-42.63-14.69-86.13-27.73-130.4-37.49-32.08-7.09-64.49-12.12-97.22-13.66-58.99-2.67-120.19,7.29-171.49,34.41-16.59,8.83-32.07,19.41-45.8,31.84-69,62.34-84.26,154.26-129.2,230.37-58,98.39-181.92,166.07-304.19,145.74-53.5-8.94-101.07-33.07-147.76-58.95-35.81-19.92-69.43-39.95-102.72-57.62-17.47-9.35-35.37-18.08-53.5-26.19-49.44-21.88-101.62-38.41-158.96-44.16-14.5-1.44-29.22-2.26-44.05-2.05-34.93,.51-68.99,7.39-100.08,20.85-62.18,26.91-112.27,80.62-127.65,144.1"/>
  <path class="cls-1" d="M1641.31,134.39c-43.28-14.38-87.34-27.63-132.04-37.49-32.41-7.09-65.15-12.12-98.32-13.66-59.66-2.67-121.61,7.5-173.25,35.02-16.81,8.94-32.3,19.62-46.25,32.25-69.65,63.16-84.37,156.32-130.07,233.14-59.32,99.42-186.54,166.07-309.69,144.61-53.5-9.14-101.4-32.97-147.87-59.57-35.37-20.13-68.99-41.29-102.28-60.49-17.47-10.17-35.37-19.82-53.72-28.86-49.88-24.55-102.72-43.75-160.06-49.91-14.5-1.54-29.22-2.36-44.16-2.05-35.04,.72-69.21,8.52-100.3,22.7-61.85,28.24-111.18,82.47-126.34,146.15"/>
  <path class="cls-1" d="M1644.17,137.68c-43.94-14.07-88.44-27.63-133.7-37.49-32.74-7.09-65.81-12.12-99.42-13.66-60.31-2.57-123.15,7.81-175.12,35.54-16.91,9.04-32.62,19.92-46.69,32.76-70.19,64.09-84.48,158.47-130.94,235.81-60.42,100.55-190.94,165.87-315.18,143.58-53.5-9.55-101.73-32.97-147.98-60.08-35.04-20.44-68.44-42.62-101.73-63.37-17.47-10.89-35.48-21.57-53.94-31.53-50.31-27.11-103.82-48.99-161.16-55.77-14.5-1.75-29.33-2.46-44.16-2.05-35.15,1.03-69.32,9.55-100.41,24.55-61.63,29.68-110.3,84.53-125.02,148.41"/>
  <path class="cls-1" d="M1647.03,141.07c-76.9-23.73-154.9-47.66-235.75-51.04-80.86-3.39-166.33,16.23-224,69.22-70.86,65.01-84.59,160.53-131.83,238.48-61.63,101.58-195.32,165.66-320.56,142.55-93.6-17.36-171.71-75.08-249.38-126.94-77.67-51.87-165.34-101.27-260.69-97.88C119.46,319.36,22.24,396.08,.49,492.42"/>
  <path class="cls-1" d="M6.42,491.19c21.31-89.25,108.21-160.43,205.1-171.52,6.37-.72,12.74-1.23,19.12-1.34,91.4-2.77,175.77,42.62,251.24,91.41,2.64,1.64,5.16,3.39,7.8,5.03,77.45,50.63,155.67,106.61,248.39,122.42,124.14,20.95,254.98-44.27,317.6-144.09,8.02-12.84,15.27-26.19,21.97-39.75,33.18-67.07,54.49-139.47,113.7-191.24,29.55-25.78,65.91-43.24,105.13-53.82,37.9-10.17,78.55-13.86,117.98-12.22,80.42,3.18,158.09,25.57,233.89,46.63"/>
  <path class="cls-1" d="M12.24,489.96c22.19-88.12,109.09-157.34,205.21-167.61,6.26-.72,12.63-1.13,19.01-1.23,90.63-2.36,174.34,42.42,249.6,90.07,2.64,1.64,5.16,3.29,7.8,4.93,77.23,49.5,155.45,103.73,247.4,117.91,123.15,18.79,251.13-47.66,314.63-145.64,8.24-12.63,15.49-25.68,22.41-38.93,34.28-65.42,57.46-134.96,117.11-184.46,29.77-24.65,66.02-41.29,105.02-51.25,37.68-9.65,78-13.04,117.33-11.61,79.98,2.98,157.21,23.83,231.91,42.31"/>
  <path class="cls-1" d="M18.17,488.72c23.07-86.99,110.08-154.16,205.32-163.71,6.26-.62,12.52-1.03,18.79-1.13,89.86-1.85,172.92,42.21,247.95,88.74,2.64,1.64,5.16,3.18,7.8,4.83,77.12,48.37,155.34,100.86,246.3,113.39,122.16,16.64,247.29-51.04,311.66-147.18,8.35-12.43,15.82-25.16,22.96-38.1,35.38-63.88,60.42-130.54,120.4-177.78,29.88-23.52,66.14-39.23,104.91-48.68,37.47-9.04,77.56-12.32,116.56-10.99,79.53,2.77,156.43,22.18,230.04,37.9"/>
  <path class="cls-1" d="M24,487.49c23.95-85.86,110.96-151.08,205.54-159.91,6.15-.62,12.41-.92,18.68-1.03,89.09-1.34,171.49,42.01,246.3,87.5,2.64,1.54,5.16,3.18,7.69,4.72,76.9,47.14,155.12,97.98,245.31,108.87,121.06,14.38,243.33-54.43,308.81-148.82,8.46-12.12,16.15-24.65,23.51-37.18,36.47-62.24,63.39-126.12,123.7-171,30.1-22.39,66.25-37.28,104.7-46.11,37.24-8.52,77.01-11.5,115.79-10.27,79.1,2.57,155.56,20.44,228.07,33.58"/>
  <path class="cls-1" d="M29.93,486.26c24.83-84.73,111.83-148,205.65-156.01,6.15-.51,12.3-.82,18.46-.92,88.33-.82,170.06,41.8,244.65,86.17,2.53,1.54,5.16,3.08,7.69,4.62,76.68,46.01,155.01,95,244.32,104.35,120.07,12.22,239.38-57.82,305.84-150.36,8.57-11.91,16.48-24.14,24.06-36.36,37.57-60.6,66.35-121.6,126.99-164.33,30.21-21.26,66.36-35.33,104.59-43.55,37.02-8.01,76.57-10.78,115.13-9.65,78.66,2.36,154.79,18.69,226.2,29.27"/>
  <path class="cls-1" d="M35.86,485.03c25.71-83.6,112.71-144.81,205.76-152.11,6.04-.51,12.19-.72,18.35-.72,87.56-.31,168.74,41.6,243,84.94,2.53,1.54,5.16,2.98,7.69,4.52,76.46,44.78,154.9,92.13,243.33,99.83,119.09,10.06,235.53-61.21,302.87-151.9,8.68-11.71,16.7-23.62,24.5-35.54,38.66-59.06,69.32-117.19,130.29-157.65,30.43-20.13,66.36-33.28,104.47-40.98,36.8-7.5,76.14-10.06,114.37-8.94,78.33,2.16,153.91,16.95,224.22,24.85"/>
  <path class="cls-1" d="M41.68,483.79c26.59-82.47,113.59-141.73,205.98-148.31,6.04-.41,12.08-.62,18.24-.62,86.79,.21,167.31,41.49,241.36,83.6,2.53,1.44,5.16,2.88,7.69,4.42,76.35,43.65,154.68,89.25,242.35,95.31,117.99,7.81,231.58-64.6,299.91-153.54,8.79-11.5,17.03-23.11,25.05-34.71,39.77-57.41,72.28-112.77,133.58-150.87,30.65-19,66.46-31.33,104.26-38.51,36.58-6.98,75.58-9.24,113.7-8.32,77.88,1.85,153.03,15.2,222.35,20.54"/>
  <path class="cls-1" d="M47.62,482.56c27.46-81.34,114.58-138.55,206.09-144.4,6.04-.41,11.97-.51,18.02-.51,86.02,.72,165.88,41.29,239.71,82.27,2.53,1.44,5.16,2.88,7.69,4.31,76.13,42.42,154.57,86.27,241.25,90.79,117,5.65,227.73-67.99,296.94-155.08,8.9-11.19,17.36-22.6,25.6-33.89,40.98-55.77,75.25-108.25,136.99-144.2,30.76-17.87,66.57-29.27,104.14-35.95,36.37-6.37,75.15-8.52,112.93-7.7,77.45,1.64,152.27,13.45,220.38,16.12"/>
  <path class="cls-1" d="M53.55,481.33c28.34-80.31,115.46-135.47,206.2-140.6,5.93-.31,11.86-.51,17.91-.41,85.25,1.23,164.46,41.08,238.06,81.03,2.53,1.34,5.05,2.77,7.69,4.11,75.91,41.29,154.46,83.4,240.26,86.27,116.01,3.49,223.78-71.38,293.98-156.63,9.01-10.99,17.69-22.08,26.14-32.97,42.08-54.23,78.22-103.84,140.29-137.42,30.98-16.74,66.68-27.32,104.04-33.38,36.15-5.85,74.6-7.7,112.16-6.98,77.01,1.44,151.39,11.81,218.51,11.81"/>
  <path class="cls-1" d="M59.37,479.99c29.22-79.08,116.34-132.28,206.42-136.7,5.93-.31,11.75-.41,17.69-.21,84.48,1.64,163.03,40.88,236.41,79.7,2.53,1.34,5.05,2.67,7.58,4.01,75.69,40.05,154.24,80.62,239.27,81.75,114.91,1.54,219.82-74.77,291.02-158.17,9.22-10.78,17.91-21.57,26.69-32.15,43.17-52.59,81.07-99.42,143.59-130.74,31.09-15.61,66.68-25.27,103.82-30.81,35.92-5.34,74.15-6.98,111.51-6.37,76.56,1.23,150.61,10.06,216.53,7.39"/>
  <path class="cls-1" d="M65.3,478.76c30.1-77.95,117.22-129.2,206.53-132.8,5.82-.21,11.75-.31,17.58-.1,83.71,2.16,161.6,40.67,234.77,78.47,2.53,1.34,5.05,2.57,7.58,3.9,75.47,38.93,154.13,77.75,238.28,77.23,113.92-.72,215.98-78.16,288.05-159.81,9.34-10.48,18.23-21.05,27.14-31.33,44.27-50.94,84.04-94.9,146.87-123.96,31.31-14.48,66.8-23.31,103.71-28.24,35.7-4.83,73.71-6.16,110.73-5.65,76.13,1.03,149.73,8.32,214.66,3.08"/>
  <path class="cls-1" d="M71.24,477.53c30.98-76.82,118.1-126.02,206.64-128.89,5.82-.21,11.64-.21,17.47,0,82.94,2.67,160.17,40.57,233.12,77.13,2.53,1.23,5.05,2.57,7.58,3.8,75.36,37.8,154.02,74.87,237.18,72.72,112.93-2.88,212.02-81.55,285.08-161.35,9.44-10.27,18.56-20.54,27.68-30.5,45.38-49.4,87.01-90.48,150.18-117.29,31.53-13.35,66.91-21.26,103.59-25.68,35.6-4.21,73.17-5.44,110.08-5.03,75.69,.82,148.97,6.57,212.69-1.34"/>
  <path class="cls-1" d="M77.06,476.3c31.86-75.69,119.09-122.94,206.86-125.09,5.71-.1,11.54-.1,17.25,.1,82.17,3.18,158.85,40.36,231.47,75.8,2.53,1.23,5.05,2.46,7.58,3.7,75.14,36.56,153.8,71.89,236.19,68.2,111.83-5.03,208.07-84.94,282.11-162.89,9.56-10.07,18.9-20.03,28.23-29.68,46.47-47.76,89.98-86.07,153.47-110.51,31.64-12.22,67.01-19.31,103.37-23.11,35.38-3.7,72.73-4.62,109.31-4.31,75.25,.62,148.09,4.83,210.82-5.65"/>
  <path class="cls-1" d="M82.99,475.06c32.74-74.56,119.96-119.86,206.97-121.19,5.71-.1,11.43,0,17.14,.21,81.4,3.7,157.43,40.16,229.82,74.56,2.53,1.23,5.05,2.36,7.58,3.59,74.92,35.43,153.69,69.02,235.2,63.68,110.85-7.19,204.22-88.43,279.26-164.43,9.67-9.86,19.12-19.51,28.78-28.76,47.57-46.11,92.94-81.65,156.87-103.83,31.86-11.09,67.12-17.25,103.27-20.64,35.15-3.18,72.18-3.9,108.54-3.7,74.82,.41,147.32,3.08,208.95-10.06"/>
  <path class="cls-1" d="M88.92,473.83c33.62-73.43,120.84-116.67,207.08-117.39,5.6,0,11.32,.1,16.92,.41,80.64,4.21,156,39.95,228.17,73.23,2.53,1.13,5.05,2.26,7.47,3.49,74.7,34.2,153.58,66.14,234.22,59.16,109.86-9.45,200.27-91.82,276.29-166.07,9.78-9.55,19.45-19,29.23-27.94,48.67-44.57,95.9-77.13,160.17-97.06,32.08-9.96,67.12-15.3,103.16-18.08,34.93-2.67,71.74-3.18,107.87-3.08,74.37,.21,146.45,1.44,206.97-14.38"/>
  <path class="cls-1" d="M94.75,472.6c34.5-72.3,121.72-113.59,207.3-113.49,5.6,0,11.21,.21,16.81,.51,79.87,4.72,154.57,39.75,226.53,72,2.53,1.13,4.94,2.26,7.47,3.29,74.59,33.07,153.36,63.16,233.23,54.64,108.76-11.61,196.32-95.21,273.33-167.61,9.89-9.35,19.77-18.49,29.77-27.11,49.76-42.93,98.87-72.71,163.47-90.38,32.19-8.83,67.23-13.35,102.94-15.51,34.71-2.05,71.3-2.36,107.11-2.36,73.93,0,145.56-.31,205.11-18.69"/>
  <path class="cls-1" d="M100.68,471.37c35.48-71.17,122.71-110.51,207.41-109.69,5.49,.1,11.1,.31,16.59,.62,79.1,5.24,153.14,39.54,224.88,70.66,2.53,1.03,4.94,2.16,7.47,3.18,74.37,31.84,153.25,60.29,232.13,50.12,107.77-13.86,192.47-98.6,270.36-169.16,9.99-9.14,20.1-17.97,30.32-26.29,50.87-41.39,101.84-68.3,166.77-83.6,32.41-7.7,67.34-11.3,102.82-12.94,34.5-1.54,70.75-1.64,106.34-1.75,73.6-.21,144.79-2.05,203.13-23.11"/>
  <path class="cls-1" d="M106.61,470.13c36.36-70.04,123.59-107.33,207.52-105.79,5.49,.1,10.99,.31,16.48,.72,78.44,5.75,151.71,39.44,223.23,69.33,2.53,1.03,4.94,2.05,7.47,3.08,74.15,30.71,153.14,57.41,231.14,45.6,106.78-16.02,188.52-101.99,267.39-170.7,10.22-8.83,20.32-17.46,30.87-25.47,51.96-39.75,104.8-63.78,170.06-76.93,32.51-6.57,67.45-9.35,102.72-10.37,34.28-1.03,70.31-.82,105.68-1.03,73.16-.51,143.91-3.8,201.25-27.42"/>
  <path class="cls-1" d="M112.43,468.9c37.24-68.92,124.47-104.25,207.74-101.88,5.49,.1,10.88,.41,16.37,.92,77.67,6.16,150.28,39.23,221.58,68.09,2.53,1.03,4.94,1.95,7.47,2.98,73.93,29.48,152.92,54.43,230.15,41.08,105.68-18.28,184.56-105.38,264.42-172.34,10.33-8.63,20.66-16.95,31.31-24.55,53.07-38.1,107.77-59.36,173.36-70.25,32.74-5.44,67.45-7.29,102.5-7.81,34.06-.51,69.76-.1,104.91-.41,72.73-.72,143.14-5.55,199.28-31.84"/>
  <path class="cls-1" d="M118.36,467.67c38.12-67.79,125.35-101.06,207.85-98.08,5.38,.21,10.77,.51,16.15,1.03,76.9,6.68,148.86,39.03,219.93,66.76,2.42,.92,4.94,1.95,7.36,2.88,73.71,28.35,152.81,51.35,229.16,36.67,104.69-20.64,180.72-108.76,261.46-173.88,10.44-8.42,20.98-16.43,31.86-23.72,54.16-36.56,110.73-54.95,176.76-63.47,32.96-4.31,67.56-5.34,102.39-5.24,33.83,0,69.32,.72,104.26,.31,72.28-.92,142.27-7.29,197.42-36.15"/>
  <path class="cls-1" d="M124.19,466.44c39-66.66,126.23-97.98,207.96-94.18,5.38,.21,10.66,.62,16.04,1.13,76.13,7.19,147.54,38.82,218.29,65.42,2.42,.92,4.94,1.85,7.36,2.77,73.6,27.22,152.59,48.48,228.06,32.15,103.6-22.8,176.76-112.15,258.49-175.42,10.55-8.11,21.32-15.92,32.41-22.9,55.26-34.92,113.7-50.43,180.06-56.8,33.06-3.18,67.67-3.29,102.27-2.77,33.62,.62,68.88,1.44,103.49,.92,71.85-1.13,141.49-8.94,195.44-40.57"/>
  <path class="cls-1" d="M130.12,465.21c39.88-65.53,127.21-94.8,208.18-90.28,5.27,.31,10.55,.72,15.82,1.23,75.36,7.7,146.11,38.62,216.64,64.19,2.42,.92,4.94,1.75,7.36,2.67,73.38,25.98,152.48,45.6,227.08,27.63,102.61-24.96,172.92-115.54,255.53-177.06,10.66-7.91,21.54-15.41,32.96-22.08,56.36-33.28,116.67-46.01,183.35-50.02,33.29-1.95,67.78-1.34,102.06-.21,33.39,1.13,68.33,2.26,102.72,1.54,71.41-1.34,140.62-10.68,193.56-44.88"/>
  <path class="cls-1" d="M136.05,463.87c40.76-64.4,128.09-91.72,208.29-86.48,5.27,.31,10.44,.82,15.71,1.34,74.59,8.22,144.68,38.41,214.99,62.86,2.42,.82,4.83,1.64,7.36,2.57,73.16,24.85,152.26,42.62,226.09,23.11,101.51-27.22,168.96-118.93,252.57-178.6,10.76-7.7,21.86-14.79,33.39-21.26,57.57-31.74,119.64-41.6,186.65-43.34,33.51-.82,67.78,.72,101.95,2.36,33.18,1.64,67.89,2.98,102.06,2.26,70.96-1.54,139.85-12.43,191.59-49.3"/>
  <path class="cls-1" d="M141.87,462.64c41.64-63.27,128.97-88.64,208.4-82.58,5.16,.41,10.33,.92,15.6,1.54,73.82,8.73,143.25,38.31,213.34,61.62,2.42,.82,4.83,1.64,7.36,2.36,72.95,23.62,152.15,39.75,225.1,18.59,100.52-29.37,165.01-122.32,249.71-180.14,10.87-7.5,22.19-14.28,33.94-20.34,58.67-30.09,122.61-37.08,189.95-36.56,33.61,.31,67.89,2.67,101.84,4.93,32.96,2.16,67.34,3.7,101.29,2.88,70.52-1.75,138.97-14.17,189.72-53.61"/>
  <path class="cls-1" d="M147.81,461.41c42.51-62.14,129.85-85.45,208.62-78.77,5.16,.41,10.33,1.03,15.38,1.64,73.06,9.24,141.83,38.1,211.8,60.29,2.42,.72,4.83,1.54,7.25,2.26,72.84,22.49,152.04,36.87,224,14.07,99.53-31.53,161.16-125.71,246.74-181.69,10.99-7.19,22.52-13.76,34.49-19.51,59.77-28.45,125.57-32.66,193.24-29.89,33.83,1.44,68,4.72,101.62,7.5,32.74,2.77,66.9,4.52,100.63,3.59,70.09-1.95,138.2-15.92,187.75-58.03"/>
  <path class="cls-1" d="M153.74,460.17c43.39-61.01,130.84-82.37,208.73-74.87,77.89,7.5,150.83,38.21,225.32,60.7,74.59,22.6,156.77,36.97,230.26,11.71,111.18-38,171.71-154.57,278.82-201.92,91.18-40.26,197.74-23.21,298.04-13.15,100.3,10.06,213.89,8.01,285.74-58.13"/>
</svg>